<?xml version="1.0" encoding="UTF-8"?>
<svg width="700pt" height="700pt" version="1.1" viewBox="0 0 700 700" xmlns="http://www.w3.org/2000/svg"
    fill="rgb(251, 206, 126)">
    <path
        d="m259.82 353.54c3.1875-15.738 7.8359-28.07 14.871-41.812 1.2812-2.5078 5.5078-10.473 6.1562-11.723 5.5781-10.766 8.5469-18.762 9.9141-28.859-0.28125-0.019531-0.56641-0.035156-0.86328-0.054687-17.387-1.0859-29.191-4.543-38.629-13.98-24.453-24.449-32.645-43.09-25.781-60.609 2.4453-6.2422 7.3516-12.945 14.723-21.094 1.9805-2.1875 4.125-4.4609 6.5039-6.9102 3.1445-3.2344 12.672-12.699 13.312-13.352-1.1484-3.1289-2.7695-6.0625-4.6133-9.1367-5.1836-8.6406-28.645-41.48-31.789-46.199-7.1641-10.746-8.457-23.117-4.9727-34.105-0.33203-0.46484-0.68359-0.94141-1.0547-1.418-5.1133-6.5703-12.812-5.707-10.82-10.184 1.2383-2.7812 8.8945-1.4766 16.289 2.1445 1.2266-1.9297 2.6172-3.7734 4.1719-5.5078-0.46484-0.54688-0.96875-1.0977-1.5039-1.6523-5.7695-6-13.34-4.3359-11.824-9 1.1836-3.6406 13.156-1.9102 22.301 3.0742 0.50391-0.32031 1.0156-0.62891 1.5352-0.92969 1.375-0.79687 2.7773-1.5156 4.2031-2.1562-5.2227-6.3203-12.777-5.3711-10.875-9.8477 1.5977-3.7695 14.953-0.34375 23.703 6.2461 18.199-2.293 38.699 6.2148 57.016 25.496 6.5586 6.9062 12.789 14.699 18.664 23.277 4.2578-3.1602 9.2578-5.3789 14.691-6.3398-0.16406-5.1133 0.67969-10.18 2.4375-14.949-5.2109-6.6953-12.914-5.832-10.918-10.312 1.1836-2.6562 8.2422-1.5781 15.328 1.6914 1.3438-2.0039 2.875-3.9023 4.582-5.6797-0.30469-0.33984-0.62109-0.68359-0.95312-1.0273-5.7695-5.9961-13.34-4.332-11.824-8.9961 1.1641-3.582 12.777-1.9648 21.863 2.8398 2.2461-1.3047 4.125-2.2266 6.043-3.0117-5.2148-6.1445-12.629-5.25-10.746-9.6914 1.6211-3.8164 15.301-0.25391 24.043 6.5039 17.719-1.4922 37.438 7.0781 55.121 25.695 43.02 45.281 73.207 134.8 73.207 194.7v163.33c0 32.555-11.758 58.254-35 76v17.332c0 6.4453-5.2227 11.668-11.664 11.668h-81.668c-6.4414 0-11.668-5.2227-11.668-11.668 0-11.355 4.2227-24.172 11.414-33.496-2.0469-1.9453-3.9805-4.1211-5.793-6.4883-2.9531 3.918-7.332 9.6328-10.023 12.617-3.4531 3.8359-7.0742 7.2344-10.984 10.195v17.172c0 6.4453-5.2227 11.668-11.664 11.668h-81.078c-6.4453 0-11.668-5.2227-11.668-11.668 0-15.117 2.9297-25.508 12.867-34.465-17.84-15.875-24.535-39.27-24.535-67.34 0-20.395 5.5977-39.07 17.098-56.836 0.26562-0.41016 0.55078-0.79297 0.85547-1.1562zm5.6016 65.77c1.2695 21.746 8.1953 38.004 23.77 47.379 4.0352 0.23047 7.8398 2.5547 9.7773 6.4336 2.8164 5.6289 0.65234 12.441-4.8164 15.441-0.88672 0.625-1.8516 1.1172-2.8672 1.4727-7.7227 4.0508-11.375 7.0898-13.055 11.637h56.383v-11.668c0-4.0781 2.1289-7.8633 5.6211-9.9766 3.4102-2.0703 6.5938-4.6875 9.6875-7.8828-38.359 0.15234-70.035-20.887-84.5-52.836zm100.55 27.879c-2.793-9.1797-4.3086-18.969-4.3086-28.438 0-30.422 15.055-57.008 42.336-67.914 5.9805-2.3906 12.77 0.51953 15.164 6.5039 2.3906 5.9844-0.51953 12.773-6.5039 15.164-17.656 7.0586-27.664 24.73-27.664 46.246 0 21.543 11.965 45.945 22.023 47.953 0.43359-0.019531 0.87109-0.03125 1.3086-0.03125 6.4453 0 11.668 5.2227 11.668 11.664 0 6.6133-5.2227 11.836-11.668 11.836-3.3477 0.91016-6.7422 5.7852-9.0547 11.5h55.723v-11.668c0-3.9023 1.9492-7.543 5.1953-9.707 19.98-13.32 29.805-32.969 29.805-60.293v-163.33c0-54.309-28.246-138.06-66.793-178.63-17.398-18.316-34.047-22.215-45.426-15.621-9.1289 5.2891-12.062 15.969-6.7148 24.008 24.711 33.605 39.02 66.602 42.688 98.98 0.72656 6.4023-3.875 12.18-10.277 12.906-6.4023 0.72656-12.184-3.875-12.906-10.277-3.1172-27.488-15.395-56.176-37.348-86.492-0.625 0.10156-1.2656 0.15625-1.9219 0.15625-6.4414 0-11.664 5.2227-11.664 11.668 0 0.5 0.03125 0.99609 0.09375 1.4844 0.74609 5.9453-3.1289 11.488-8.9688 12.828-0.59375 0.14062-0.59375 0.14062-1.1797 0.28906-1.582 0.40625-3.1641 0.91406-4.7578 1.5195-5.8984 2.25-12.52-0.60156-14.934-6.4375-1.793-4.3281-6.0234-7.207-10.789-7.207-6.4414 0-11.664 5.2227-11.664 11.668 0 3.5391 1.5664 6.793 4.25 9.0078 5.1914 4.2812 5.6953 12.059 1.0977 16.973-3.293 3.5156-14.027 15.891-16.145 18.035-0.77734 0.78906-10.223 10.176-13.195 13.234-2.1992 2.2617-4.1562 4.3359-5.9297 6.2969-5.5859 6.1758-9.1758 11.082-10.305 13.953-2.5977 6.6406 1.9531 16.996 20.559 35.602 4.3711 4.3711 11.391 6.4258 23.586 7.1875 2.2109 0.14062 3.8906 0.21484 8.168 0.375 18.879 0.72266 38.238 0.72266 51.141 0.011719 6.4336-0.35156 11.934 4.5742 12.289 11.008 0.35156 6.4336-4.5781 11.938-11.012 12.289-10.066 0.55469-23.566 0.70312-37.766 0.44531-1.5898 14.105-5.4609 25.008-12.609 38.809-0.73047 1.4062-4.918 9.3008-6.1055 11.621-7.0781 13.828-11.219 25.555-13.988 42.469-8.6641 52.953 31.613 92.551 84.504 82.359zm-71.102-369.15c-17.398-18.316-34.051-22.215-45.43-15.621-9.125 5.2891-12.059 15.969-6.4062 24.449 1.8047 2.7031 13.168 18.672 22.191 31.789 3.9219-15.043 17.602-26.145 33.871-26.145 2.9844 0 5.8945 0.375 8.6836 1.0898-4.1562-5.6797-8.4648-10.883-12.91-15.562zm-37.172 127.34c4.3008-4.2617 13.688-3.8711 17.293 0 3.6094 3.875-5.3867 11.004-8.3477 11.004-2.9609 0-13.246-6.7422-8.9453-11.004zm74.797-30.375c-3.2227 0-5.832-2.6133-5.832-5.832 0-3.2227 2.6094-5.8359 5.832-5.8359s5.832 2.6133 5.832 5.8359c0 3.2188-2.6094 5.832-5.832 5.832z" />
</svg>