<?xml version="1.0" encoding="UTF-8"?>
<svg width="700pt" height="700pt" version="1.1" viewBox="0 0 700 700" xmlns="http://www.w3.org/2000/svg" fill="white"
    stroke="rgb(255,251,235)">
    <path
        d="m350 0c-164.85 0-280 100.75-280 245v87.5c0 21.105 13.984 52.5 52.5 52.5h16.766c12.391 0 17.727 20.512 17.762 20.512l18.496 106.23c4.168 16.691 22.227 48.262 60.727 48.262h227.5c38.484 0 56.543-31.57 60.988-49.508l18.059-104.12c0.070313-0.21094 5.3398-21.367 17.938-21.367h16.766c38.516 0 52.5-31.395 52.5-52.5v-87.5c0-144.25-115.13-245-280-245zm245 332.29c-0.21094 8.0859-3.3945 17.711-17.5 17.711h-16.766c-32.637 0-48.109 30.641-52.238 49.508l-17.922 103.58c-0.625 2.2383-6.5586 21.91-26.824 21.91h-227.5c-20.266 0-26.215-19.672-26.512-20.492l-18.375-105.77c-3.9922-18.113-19.461-48.738-52.098-48.738h-16.766c-14.086 0-17.289-9.625-17.5-17.5v-87.5c0-145.07 123.04-210 245-210s245 64.926 245 210zm-123.6 111.35c-3.3789 9.0469-13.477 13.633-22.523 10.254-1.3125-0.48828-130.36-47.672-191.48 13.492-3.4297 3.3984-7.9102 5.1133-12.391 5.1133s-8.9609-1.7148-12.371-5.1289c-6.8438-6.8438-6.8438-17.902 0-24.746 77.07-77.105 222.37-23.836 228.53-21.508 9.0312 3.3984 13.613 13.461 10.238 22.523zm-178.59-87.359 43.75-52.5c6.6484-7.9609 20.23-7.9609 26.879 0l43.75 52.5c6.1953 7.4375 5.1797 18.48-2.2383 24.656-3.2734 2.7344-7.2266 4.0625-11.184 4.0625-5.0234 0-9.9922-2.1367-13.477-6.2812l-30.289-36.367-30.309 36.363c-6.1953 7.4219-17.203 8.3984-24.641 2.2383-7.4219-6.1914-8.4375-17.234-2.2422-24.672zm170.94-181.28c-43.418 0-78.75 35.332-78.75 78.75s35.332 78.75 78.75 78.75 78.75-35.332 78.75-78.75-35.332-78.75-78.75-78.75zm0 122.5c-24.133 0-43.75-19.637-43.75-43.75s19.617-43.75 43.75-43.75 43.75 19.637 43.75 43.75-19.617 43.75-43.75 43.75zm-148.75-43.75c0-43.418-35.332-78.75-78.75-78.75s-78.75 35.332-78.75 78.75 35.332 78.75 78.75 78.75 78.75-35.332 78.75-78.75zm-122.5 0c0-24.113 19.637-43.75 43.75-43.75s43.75 19.637 43.75 43.75-19.637 43.75-43.75 43.75-43.75-19.637-43.75-43.75z" />
</svg>