<?xml version="1.0" encoding="UTF-8"?>
<svg width="700pt" height="700pt" version="1.1" viewBox="0 0 700 560" xmlns="http://www.w3.org/2000/svg"
    xmlns:xlink="http://www.w3.org/1999/xlink" fill="rgb(255,251,235)">
    <defs>
        <symbol id="u">
            <path
                d="m6.6094-0.39062c-0.33594 0.17969-0.6875 0.30859-1.0625 0.39062-0.36719 0.09375-0.75 0.14062-1.1562 0.14062-1.1992 0-2.1523-0.33203-2.8594-1-0.69922-0.67578-1.0469-1.5859-1.0469-2.7344 0-1.1445 0.34766-2.0508 1.0469-2.7188 0.70703-0.67578 1.6602-1.0156 2.8594-1.0156 0.40625 0 0.78906 0.046875 1.1562 0.14062 0.375 0.085938 0.72656 0.21484 1.0625 0.39062v1.5c-0.34375-0.23828-0.68359-0.41016-1.0156-0.51562-0.33594-0.11328-0.68359-0.17188-1.0469-0.17188-0.66797 0-1.1953 0.21484-1.5781 0.64062-0.375 0.42969-0.5625 1.0117-0.5625 1.75 0 0.74219 0.1875 1.3242 0.5625 1.75 0.38281 0.42969 0.91016 0.64062 1.5781 0.64062 0.36328 0 0.71094-0.050781 1.0469-0.15625 0.33203-0.11328 0.67188-0.28906 1.0156-0.53125z" />
        </symbol>
        <symbol id="e">
            <path
                d="m4.8438-3.9375c-0.15625-0.0625-0.30859-0.10938-0.45312-0.14062-0.14844-0.039063-0.29688-0.0625-0.45312-0.0625-0.4375 0-0.77734 0.14844-1.0156 0.4375-0.24219 0.28125-0.35938 0.6875-0.35938 1.2188v2.4844h-1.7344v-5.4062h1.7344v0.89062c0.21875-0.35156 0.46875-0.60938 0.75-0.76562 0.28906-0.16406 0.64062-0.25 1.0469-0.25 0.050781 0 0.10938 0.007812 0.17188 0.015625 0.070312 0 0.17578 0.011719 0.3125 0.03125z" />
        </symbol>
        <symbol id="b">
            <path
                d="m6.2188-2.7188v0.5h-4.0312c0.039062 0.40625 0.1875 0.71484 0.4375 0.92188 0.25 0.19922 0.59766 0.29688 1.0469 0.29688 0.36328 0 0.73438-0.050781 1.1094-0.15625 0.38281-0.11328 0.78125-0.28125 1.1875-0.5v1.3281c-0.40625 0.15625-0.82031 0.27344-1.2344 0.34375-0.40625 0.082031-0.8125 0.125-1.2188 0.125-0.98047 0-1.7422-0.24219-2.2812-0.73438-0.54297-0.5-0.8125-1.2031-0.8125-2.1094 0-0.875 0.26562-1.5625 0.79688-2.0625 0.53125-0.50781 1.2656-0.76562 2.2031-0.76562 0.84375 0 1.5195 0.25781 2.0312 0.76562 0.50781 0.51172 0.76562 1.1953 0.76562 2.0469zm-1.7656-0.5625c0-0.33203-0.10156-0.59766-0.29688-0.79688-0.1875-0.20703-0.4375-0.3125-0.75-0.3125-0.33594 0-0.60547 0.10156-0.8125 0.29688-0.21094 0.1875-0.33984 0.46094-0.39062 0.8125z" />
        </symbol>
        <symbol id="d">
            <path
                d="m3.25-2.4375c-0.36719 0-0.63672 0.0625-0.8125 0.1875-0.17969 0.125-0.26562 0.30859-0.26562 0.54688 0 0.21875 0.070313 0.39062 0.21875 0.51562 0.14453 0.125 0.34766 0.1875 0.60938 0.1875 0.32031 0 0.59375-0.11328 0.8125-0.34375 0.21875-0.23828 0.32812-0.53516 0.32812-0.89062v-0.20312zm2.6406-0.64062v3.0781h-1.75v-0.79688c-0.23047 0.32422-0.49219 0.5625-0.78125 0.71875-0.28125 0.14453-0.63281 0.21875-1.0469 0.21875-0.5625 0-1.0234-0.16016-1.375-0.48438-0.34375-0.33203-0.51562-0.75781-0.51562-1.2812 0-0.625 0.21875-1.082 0.65625-1.375 0.4375-0.30078 1.1172-0.45312 2.0469-0.45312h1.0156v-0.14062c0-0.26953-0.10938-0.46875-0.32812-0.59375-0.21094-0.13281-0.54297-0.20312-1-0.20312-0.36719 0-0.71094 0.042969-1.0312 0.125-0.3125 0.074219-0.60938 0.18359-0.89062 0.32812v-1.3125c0.375-0.09375 0.74219-0.16016 1.1094-0.20312 0.375-0.050781 0.75-0.078125 1.125-0.078125 0.97656 0 1.6797 0.19531 2.1094 0.57812 0.4375 0.38672 0.65625 1.0117 0.65625 1.875z" />
        </symbol>
        <symbol id="c">
            <path
                d="m2.7188-6.9375v1.5312h1.7812v1.2344h-1.7812v2.2969c0 0.25 0.046875 0.42188 0.14062 0.51562 0.10156 0.085937 0.30078 0.125 0.59375 0.125h0.89062v1.2344h-1.4844c-0.67969 0-1.1641-0.14062-1.4531-0.42188-0.28125-0.28906-0.42188-0.77344-0.42188-1.4531v-2.2969h-0.85938v-1.2344h0.85938v-1.5312z" />
        </symbol>
        <symbol id="k">
            <path
                d="m4.5-4.6094v-2.8906h1.7344v7.5h-1.7344v-0.78125c-0.24219 0.32422-0.50781 0.55859-0.79688 0.70312-0.28125 0.14453-0.60938 0.21875-0.98438 0.21875-0.66797 0-1.2148-0.26562-1.6406-0.79688-0.42969-0.53125-0.64062-1.2109-0.64062-2.0469 0-0.82031 0.21094-1.5 0.64062-2.0312 0.42578-0.53125 0.97266-0.79688 1.6406-0.79688 0.375 0 0.70312 0.078125 0.98438 0.23438 0.28906 0.14844 0.55469 0.375 0.79688 0.6875zm-1.1406 3.5c0.375 0 0.65625-0.13281 0.84375-0.40625 0.19531-0.26953 0.29688-0.66406 0.29688-1.1875 0-0.50781-0.10156-0.89844-0.29688-1.1719-0.1875-0.26953-0.46875-0.40625-0.84375-0.40625-0.36719 0-0.64844 0.13672-0.84375 0.40625-0.1875 0.27344-0.28125 0.66406-0.28125 1.1719 0 0.52344 0.09375 0.91797 0.28125 1.1875 0.19531 0.27344 0.47656 0.40625 0.84375 0.40625z" />
        </symbol>
        <symbol id="j">
            <path
                d="m3.7031-1.1094c0.36328 0 0.64453-0.13281 0.84375-0.40625 0.19531-0.26953 0.29688-0.66406 0.29688-1.1875 0-0.50781-0.10156-0.89844-0.29688-1.1719-0.19922-0.26953-0.48047-0.40625-0.84375-0.40625-0.36719 0-0.64844 0.13672-0.84375 0.40625-0.19922 0.27344-0.29688 0.66406-0.29688 1.1719 0 0.52344 0.097656 0.91797 0.29688 1.1875 0.19531 0.27344 0.47656 0.40625 0.84375 0.40625zm-1.1406-3.5c0.22656-0.3125 0.48828-0.53906 0.78125-0.6875 0.28906-0.15625 0.625-0.23438 1-0.23438 0.66406 0 1.2109 0.26562 1.6406 0.79688 0.42578 0.53125 0.64062 1.2109 0.64062 2.0312 0 0.83594-0.21484 1.5156-0.64062 2.0469-0.42969 0.53125-0.97656 0.79688-1.6406 0.79688-0.375 0-0.71094-0.074219-1-0.21875-0.29297-0.15625-0.55469-0.39062-0.78125-0.70312v0.78125h-1.7344v-7.5h1.7344z" />
        </symbol>
        <symbol id="g">
            <path
                d="m0.125-5.4062h1.7188l1.4531 3.6719 1.2344-3.6719h1.7344l-2.2812 5.9219c-0.23047 0.59375-0.49609 1.0078-0.79688 1.25-0.30469 0.23828-0.70312 0.35938-1.2031 0.35938h-1v-1.125h0.54688c0.28906 0 0.50391-0.046875 0.64062-0.14062 0.13281-0.09375 0.23828-0.26172 0.3125-0.5l0.046875-0.15625z" />
        </symbol>
        <symbol id="i">
            <path
                d="m7.375-0.53125c-0.46094 0.21875-0.9375 0.38672-1.4375 0.5-0.5 0.11328-1.0156 0.17188-1.5469 0.17188-1.1992 0-2.1523-0.33203-2.8594-1-0.69922-0.67578-1.0469-1.5859-1.0469-2.7344 0-1.1562 0.35156-2.0664 1.0625-2.7344 0.71875-0.66406 1.7031-1 2.9531-1 0.47656 0 0.9375 0.046875 1.375 0.14062 0.4375 0.085938 0.84766 0.21484 1.2344 0.39062v1.5c-0.39844-0.22656-0.79688-0.39844-1.2031-0.51562-0.39844-0.11328-0.79297-0.17188-1.1875-0.17188-0.74219 0-1.3125 0.21094-1.7188 0.625-0.39844 0.40625-0.59375 0.99609-0.59375 1.7656 0 0.76172 0.19141 1.3516 0.57812 1.7656 0.38281 0.41797 0.9375 0.625 1.6562 0.625 0.1875 0 0.36328-0.007813 0.53125-0.03125 0.16406-0.03125 0.31641-0.070313 0.45312-0.125v-1.3906h-1.1406v-1.25h2.8906z" />
        </symbol>
        <symbol id="f">
            <path
                d="m6.2656-3.2812v3.2812h-1.75v-2.5156c0-0.46875-0.011719-0.78906-0.03125-0.96875-0.023437-0.17578-0.054687-0.30469-0.09375-0.39062-0.074219-0.11328-0.16797-0.20312-0.28125-0.26562-0.11719-0.0625-0.24609-0.09375-0.39062-0.09375-0.36719 0-0.65234 0.14062-0.85938 0.42188-0.19922 0.28125-0.29688 0.66797-0.29688 1.1562v2.6562h-1.7344v-5.4062h1.7344v0.79688c0.25781-0.3125 0.53516-0.53906 0.82812-0.6875 0.28906-0.15625 0.61328-0.23438 0.96875-0.23438 0.625 0 1.0977 0.19531 1.4219 0.57812 0.32031 0.375 0.48438 0.93359 0.48438 1.6719z" />
        </symbol>
        <symbol id="t">
            <path
                d="m0.90625-7.2031h1.8594v2.625l2.6719-2.625h2.1562l-3.4688 3.4062 3.8281 3.7969h-2.3281l-2.8594-2.8281v2.8281h-1.8594z" />
        </symbol>
        <symbol id="h">
            <path
                d="m6.2656-3.2812v3.2812h-1.75v-2.5c0-0.47656-0.011719-0.80469-0.03125-0.98438-0.023437-0.17578-0.054687-0.30469-0.09375-0.39062-0.074219-0.11328-0.16797-0.20312-0.28125-0.26562-0.11719-0.0625-0.24609-0.09375-0.39062-0.09375-0.36719 0-0.65234 0.14062-0.85938 0.42188-0.19922 0.28125-0.29688 0.66797-0.29688 1.1562v2.6562h-1.7344v-7.5h1.7344v2.8906c0.25781-0.3125 0.53516-0.53906 0.82812-0.6875 0.28906-0.15625 0.61328-0.23438 0.96875-0.23438 0.625 0 1.0977 0.19531 1.4219 0.57812 0.32031 0.375 0.48438 0.93359 0.48438 1.6719z" />
        </symbol>
        <symbol id="a">
            <path
                d="m3.4062-4.2969c-0.38672 0-0.68359 0.14062-0.89062 0.42188-0.19922 0.27344-0.29688 0.66406-0.29688 1.1719 0 0.52344 0.097656 0.92188 0.29688 1.2031 0.20703 0.27344 0.50391 0.40625 0.89062 0.40625 0.375 0 0.66016-0.13281 0.85938-0.40625 0.19531-0.28125 0.29688-0.67969 0.29688-1.2031 0-0.50781-0.10156-0.89844-0.29688-1.1719-0.19922-0.28125-0.48438-0.42188-0.85938-0.42188zm0-1.2344c0.92578 0 1.6484 0.25 2.1719 0.75 0.51953 0.5 0.78125 1.1953 0.78125 2.0781 0 0.89844-0.26172 1.5938-0.78125 2.0938-0.52344 0.5-1.2461 0.75-2.1719 0.75-0.9375 0-1.6719-0.25-2.2031-0.75-0.52344-0.5-0.78125-1.1953-0.78125-2.0938 0-0.88281 0.25781-1.5781 0.78125-2.0781 0.53125-0.5 1.2656-0.75 2.2031-0.75z" />
        </symbol>
        <symbol id="s">
            <path d="m0.90625-7.2031h1.8594v5.7969h3.25v1.4062h-5.1094z" />
        </symbol>
        <symbol id="r">
            <path
                d="m4.3906-7.5v1.125h-0.96875c-0.24219 0-0.41406 0.046875-0.51562 0.14062-0.09375 0.085937-0.14062 0.23438-0.14062 0.45312v0.375h1.4844v1.2344h-1.4844v4.1719h-1.7188v-4.1719h-0.85938v-1.2344h0.85938v-0.375c0-0.58203 0.16016-1.0156 0.48438-1.2969 0.33203-0.28125 0.84375-0.42188 1.5312-0.42188z" />
        </symbol>
        <symbol id="q">
            <path
                d="m5.8281-4.5c0.21875-0.33203 0.47656-0.58594 0.78125-0.76562 0.30078-0.17578 0.63281-0.26562 1-0.26562 0.61328 0 1.082 0.19531 1.4062 0.57812 0.33203 0.375 0.5 0.93359 0.5 1.6719v3.2812h-1.75v-2.8125c0.007813-0.039062 0.015625-0.082031 0.015625-0.125v-0.20312c0-0.38281-0.058594-0.66016-0.17188-0.82812-0.11719-0.17578-0.29688-0.26562-0.54688-0.26562-0.32422 0-0.57422 0.13672-0.75 0.40625-0.17969 0.27344-0.27344 0.66406-0.28125 1.1719v2.6562h-1.7344v-2.8125c0-0.60156-0.054687-0.98828-0.15625-1.1562-0.10547-0.17578-0.28906-0.26562-0.54688-0.26562-0.33594 0-0.58984 0.14062-0.76562 0.42188-0.17969 0.27344-0.26562 0.65625-0.26562 1.1562v2.6562h-1.75v-5.4062h1.75v0.79688c0.20703-0.30078 0.44531-0.53125 0.71875-0.6875 0.28125-0.15625 0.58203-0.23438 0.90625-0.23438 0.375 0 0.70312 0.09375 0.98438 0.28125 0.28906 0.17969 0.50781 0.42969 0.65625 0.75z" />
        </symbol>
        <symbol id="p">
            <path
                d="m0.90625-7.2031h2.0781l2.6094 4.9375v-4.9375h1.7656v7.2031h-2.0781l-2.6094-4.9375v4.9375h-1.7656z" />
        </symbol>
        <symbol id="o">
            <path
                d="m0.76562-2.1094v-3.2969h1.7344v0.54688 1.1094 0.875c0 0.4375 0.007812 0.75 0.03125 0.9375 0.019531 0.1875 0.054688 0.32812 0.10938 0.42188 0.070313 0.11719 0.16406 0.20312 0.28125 0.26562 0.11328 0.054688 0.24219 0.078125 0.39062 0.078125 0.36328 0 0.64453-0.13281 0.84375-0.40625 0.20703-0.28125 0.3125-0.66406 0.3125-1.1562v-2.6719h1.7344v5.4062h-1.7344v-0.78125c-0.26172 0.3125-0.53906 0.54688-0.82812 0.70312-0.28125 0.14453-0.60156 0.21875-0.95312 0.21875-0.625 0-1.1055-0.1875-1.4375-0.5625-0.32422-0.38281-0.48438-0.94531-0.48438-1.6875z" />
        </symbol>
        <symbol id="n">
            <path
                d="m0.90625-7.2031h3.0781c0.91406 0 1.6172 0.20312 2.1094 0.60938 0.48828 0.40625 0.73438 0.99219 0.73438 1.75 0 0.75-0.24609 1.3281-0.73438 1.7344-0.49219 0.40625-1.1953 0.60938-2.1094 0.60938h-1.2188v2.5h-1.8594zm1.8594 1.3438v2.0156h1.0312c0.35156 0 0.62891-0.085938 0.82812-0.26562 0.19531-0.17578 0.29688-0.42188 0.29688-0.73438 0-0.32031-0.10156-0.57031-0.29688-0.75-0.19922-0.17578-0.47656-0.26562-0.82812-0.26562z" />
        </symbol>
        <symbol id="m">
            <path
                d="m0.82812-5.4062h1.7344v5.3125c0 0.71875-0.17969 1.2656-0.53125 1.6406-0.34375 0.38281-0.84375 0.57812-1.5 0.57812h-0.85938v-1.125h0.29688c0.33203 0 0.55469-0.078125 0.67188-0.23438 0.125-0.14844 0.1875-0.43359 0.1875-0.85938zm0-2.0938h1.7344v1.4062h-1.7344z" />
        </symbol>
        <symbol id="l">
            <path
                d="m5.1875-5.2344v1.4062c-0.23047-0.15625-0.46484-0.26953-0.70312-0.34375-0.24219-0.082031-0.48438-0.125-0.73438-0.125-0.48047 0-0.85547 0.14062-1.125 0.42188-0.27344 0.28125-0.40625 0.67188-0.40625 1.1719 0 0.51172 0.13281 0.90625 0.40625 1.1875 0.26953 0.28125 0.64453 0.42188 1.125 0.42188 0.26953 0 0.52344-0.035156 0.76562-0.10938 0.25-0.082031 0.47266-0.20703 0.67188-0.375v1.4219c-0.27344 0.09375-0.54688 0.16406-0.82812 0.21875-0.27344 0.050781-0.54688 0.078125-0.82812 0.078125-0.96875 0-1.7305-0.25-2.2812-0.75-0.55469-0.5-0.82812-1.1953-0.82812-2.0938 0-0.88281 0.27344-1.5781 0.82812-2.0781 0.55078-0.5 1.3125-0.75 2.2812-0.75 0.28125 0 0.55469 0.027344 0.82812 0.078125 0.28125 0.054687 0.55469 0.125 0.82812 0.21875z" />
        </symbol>
    </defs>
    <g>
        <path
            d="m491.13 196.54c-6.7891-3.4258-12.762-4.1797-16.309-4.2109-0.20703-0.007813-0.40625-0.03125-0.61719-0.03125l-73.543-0.003906c-5.4961-1.793-21.164-7.5195-35.707-17.785-8.6758-6.0859-16.859-13.68-22.648-22.555-5.793-8.9219-9.3984-18.91-9.4375-31.461 0-3.5703-1.1992-6.8516-3.1953-9.4961l-28.086 16.973c1.3516 16.477 7.1797 30.879 15.137 42.555 13.766 20.191 33.09 32.941 48.762 41.09 6.5156 3.3594 12.434 5.9062 17.207 7.7656v116.77l-16.082 197.46c-1.0938 13.438 8.9102 25.211 22.34 26.305 13.434 1.0938 25.211-8.9062 26.309-22.34l14.645-179.78h12.352l14.645 179.78c1.0938 13.438 12.875 23.434 26.309 22.34 13.43-1.0938 23.434-12.871 22.34-26.305l-16.086-197.49v-96.137c1.168 2.3984 2.3477 5.1484 3.5078 8.3594 5.5625 15.418 10.242 40.715 10.227 80.211 0 10.887-0.35156 22.844-1.1133 35.977-0.50781 8.707 6.1406 16.176 14.852 16.684 0.3125 0.019531 0.625 0.027344 0.93359 0.027344 8.3008 0.003906 15.258-6.4805 15.75-14.871 0.79297-13.688 1.1641-26.246 1.1641-37.809-0.078125-59.574-9.5938-92.543-22.57-112.37-6.4883-9.8477-14.07-16.156-21.082-19.656z" />
        <path
            d="m480.49 136.64c0 24.527-19.883 44.41-44.41 44.41s-44.41-19.883-44.41-44.41c0-24.527 19.883-44.41 44.41-44.41s44.41 19.883 44.41 44.41" />
        <path
            d="m484.99 12.07-7.2891-12.07-102.15 61.73-7.9023-13.074-26.949 16.277-3.5586-5.8789-58.758 35.508 3.9531 6.5391-23.418 14.152-93.699 6.6406 15.586 38.773 76.824-28.582 16.523 7.3867zm-114.38 55.91 2.0391 3.3828-44.902 27.133-2.043-3.375z" />
        <use x="165.222656" y="589.605469" xlink:href="#u" />
        <use x="172.464844" y="589.605469" xlink:href="#e" />
        <use x="177.332031" y="589.605469" xlink:href="#b" />
        <use x="184.027344" y="589.605469" xlink:href="#d" />
        <use x="190.683594" y="589.605469" xlink:href="#c" />
        <use x="195.402344" y="589.605469" xlink:href="#b" />
        <use x="202.097656" y="589.605469" xlink:href="#k" />
        <use x="212.597656" y="589.605469" xlink:href="#j" />
        <use x="219.660156" y="589.605469" xlink:href="#g" />
        <use x="229.53125" y="589.605469" xlink:href="#i" />
        <use x="237.632812" y="589.605469" xlink:href="#d" />
        <use x="244.289062" y="589.605469" xlink:href="#f" />
        <use x="254.753906" y="589.605469" xlink:href="#t" />
        <use x="262.398438" y="589.605469" xlink:href="#h" />
        <use x="269.425781" y="589.605469" xlink:href="#a" />
        <use x="276.207031" y="589.605469" xlink:href="#a" />
        <use x="282.984375" y="589.605469" xlink:href="#f" />
        <use x="293.449219" y="589.605469" xlink:href="#s" />
        <use x="299.738281" y="589.605469" xlink:href="#d" />
        <use x="306.394531" y="589.605469" xlink:href="#g" />
        <use x="165.222656" y="599.476562" xlink:href="#r" />
        <use x="169.515625" y="599.476562" xlink:href="#e" />
        <use x="174.382812" y="599.476562" xlink:href="#a" />
        <use x="181.164062" y="599.476562" xlink:href="#q" />
        <use x="194.882812" y="599.476562" xlink:href="#c" />
        <use x="199.601562" y="599.476562" xlink:href="#h" />
        <use x="206.625" y="599.476562" xlink:href="#b" />
        <use x="216.753906" y="599.476562" xlink:href="#p" />
        <use x="225.015625" y="599.476562" xlink:href="#a" />
        <use x="231.796875" y="599.476562" xlink:href="#o" />
        <use x="238.820312" y="599.476562" xlink:href="#f" />
        <use x="249.28125" y="599.476562" xlink:href="#n" />
        <use x="256.515625" y="599.476562" xlink:href="#e" />
        <use x="261.382812" y="599.476562" xlink:href="#a" />
        <use x="268.164062" y="599.476562" xlink:href="#m" />
        <use x="271.546875" y="599.476562" xlink:href="#b" />
        <use x="278.238281" y="599.476562" xlink:href="#l" />
        <use x="284.089844" y="599.476562" xlink:href="#c" />
    </g>
</svg>