<?xml version="1.0" encoding="UTF-8"?>
<svg width="700pt" height="700pt" version="1.1" viewBox="0 0 700 550" xmlns="http://www.w3.org/2000/svg"
    xmlns:xlink="http://www.w3.org/1999/xlink" fill="rgb(255,251,235)">
    <defs>
        <symbol id="u" overflow="visible">
            <path
                d="m5.3125-0.3125c-0.27344 0.13672-0.55859 0.24219-0.85938 0.3125-0.29297 0.070312-0.60156 0.10938-0.92188 0.10938-0.96875 0-1.7344-0.26562-2.2969-0.79688-0.5625-0.53906-0.84375-1.2734-0.84375-2.2031 0-0.92578 0.28125-1.6562 0.84375-2.1875 0.5625-0.53906 1.3281-0.8125 2.2969-0.8125 0.32031 0 0.62891 0.039063 0.92188 0.10938 0.30078 0.074219 0.58594 0.18359 0.85938 0.32812v1.1875c-0.27344-0.1875-0.54297-0.32031-0.8125-0.40625-0.27344-0.09375-0.55469-0.14062-0.84375-0.14062-0.53125 0-0.95312 0.17188-1.2656 0.51562-0.30469 0.34375-0.45312 0.8125-0.45312 1.4062 0 0.60547 0.14844 1.0781 0.45312 1.4219 0.3125 0.33594 0.73438 0.5 1.2656 0.5 0.28906 0 0.57031-0.039062 0.84375-0.125 0.26953-0.09375 0.53906-0.23438 0.8125-0.42188z" />
        </symbol>
        <symbol id="e" overflow="visible">
            <path
                d="m3.8906-3.1562c-0.125-0.0625-0.25-0.10156-0.375-0.125-0.11719-0.03125-0.23047-0.046875-0.34375-0.046875-0.36719 0-0.64844 0.11719-0.84375 0.34375-0.1875 0.23047-0.28125 0.55859-0.28125 0.98438v2h-1.375v-4.3438h1.375v0.71875c0.1875-0.28125 0.39453-0.48828 0.625-0.625 0.22656-0.13281 0.50391-0.20312 0.82812-0.20312 0.039062 0 0.085938 0.007813 0.14062 0.015625 0.0625 0 0.14453 0.007812 0.25 0.015625z" />
        </symbol>
        <symbol id="b" overflow="visible">
            <path
                d="m5-2.1875v0.40625h-3.25c0.039062 0.32422 0.16016 0.57031 0.35938 0.73438 0.19531 0.15625 0.47656 0.23438 0.84375 0.23438 0.28906 0 0.58594-0.039062 0.89062-0.125 0.3125-0.082031 0.62891-0.21094 0.95312-0.39062v1.0625c-0.33594 0.125-0.66797 0.21875-1 0.28125-0.32422 0.0625-0.64844 0.09375-0.96875 0.09375-0.79297 0-1.4062-0.19531-1.8438-0.59375-0.42969-0.39453-0.64062-0.95703-0.64062-1.6875 0-0.70703 0.21094-1.2656 0.64062-1.6719 0.42578-0.40625 1.0156-0.60938 1.7656-0.60938 0.67578 0 1.2188 0.21094 1.625 0.625 0.41406 0.40625 0.625 0.95312 0.625 1.6406zm-1.4219-0.45312c0-0.25781-0.078125-0.46875-0.23438-0.625-0.15625-0.16406-0.35938-0.25-0.60938-0.25-0.26172 0-0.48047 0.078125-0.65625 0.23438-0.16797 0.14844-0.27344 0.35938-0.3125 0.64062z" />
        </symbol>
        <symbol id="d" overflow="visible">
            <path
                d="m2.6094-1.9531c-0.29297 0-0.51172 0.054687-0.65625 0.15625-0.14844 0.09375-0.21875 0.23438-0.21875 0.42188 0 0.17969 0.054687 0.32031 0.17188 0.42188 0.125 0.09375 0.28906 0.14062 0.5 0.14062 0.25781 0 0.47656-0.09375 0.65625-0.28125 0.17578-0.1875 0.26562-0.42188 0.26562-0.70312v-0.15625zm2.125-0.53125v2.4844h-1.4062v-0.64062c-0.1875 0.26172-0.39844 0.45312-0.625 0.57812-0.23047 0.11328-0.51172 0.17188-0.84375 0.17188-0.44922 0-0.8125-0.12891-1.0938-0.39062-0.28125-0.25781-0.42188-0.59766-0.42188-1.0156 0-0.50781 0.17188-0.88281 0.51562-1.125 0.35156-0.23828 0.90625-0.35938 1.6562-0.35938h0.8125v-0.10938c0-0.21875-0.089844-0.375-0.26562-0.46875-0.16797-0.10156-0.43359-0.15625-0.79688-0.15625-0.30469 0-0.58594 0.03125-0.84375 0.09375-0.25 0.054687-0.48438 0.13672-0.70312 0.25v-1.0469c0.30078-0.070312 0.59766-0.12891 0.89062-0.17188 0.30078-0.039063 0.60156-0.0625 0.90625-0.0625 0.78125 0 1.3438 0.15625 1.6875 0.46875 0.35156 0.3125 0.53125 0.8125 0.53125 1.5z" />
        </symbol>
        <symbol id="c" overflow="visible">
            <path
                d="m2.1875-5.5781v1.2344h1.4219v1h-1.4219v1.8438c0 0.19922 0.035156 0.33594 0.10938 0.40625 0.082031 0.0625 0.24219 0.09375 0.48438 0.09375h0.70312v1h-1.1875c-0.54297 0-0.92969-0.11328-1.1562-0.34375-0.23047-0.22656-0.34375-0.61328-0.34375-1.1562v-1.8438h-0.6875v-1h0.6875v-1.2344z" />
        </symbol>
        <symbol id="k" overflow="visible">
            <path
                d="m3.625-3.7031v-2.3281h1.3906v6.0312h-1.3906v-0.625c-0.19922 0.25-0.41406 0.4375-0.64062 0.5625-0.23047 0.11328-0.49609 0.17188-0.79688 0.17188-0.53125 0-0.96875-0.20703-1.3125-0.625-0.34375-0.42578-0.51562-0.97656-0.51562-1.6562 0-0.66406 0.17188-1.2109 0.51562-1.6406 0.34375-0.42578 0.78125-0.64062 1.3125-0.64062 0.30078 0 0.56641 0.0625 0.79688 0.1875 0.22656 0.125 0.44141 0.3125 0.64062 0.5625zm-0.92188 2.8125c0.30078 0 0.53125-0.10938 0.6875-0.32812s0.23438-0.53516 0.23438-0.95312c0-0.40625-0.078125-0.71875-0.23438-0.9375s-0.38672-0.32812-0.6875-0.32812c-0.29297 0-0.51562 0.10938-0.67188 0.32812s-0.23438 0.53125-0.23438 0.9375c0 0.41797 0.078125 0.73438 0.23438 0.95312s0.37891 0.32812 0.67188 0.32812z" />
        </symbol>
        <symbol id="j" overflow="visible">
            <path
                d="m2.9844-0.89062c0.28906 0 0.51562-0.10938 0.67188-0.32812s0.23438-0.53516 0.23438-0.95312c0-0.40625-0.078125-0.71875-0.23438-0.9375s-0.38281-0.32812-0.67188-0.32812c-0.30469 0-0.53906 0.10938-0.70312 0.32812-0.15625 0.21875-0.23438 0.53125-0.23438 0.9375 0 0.41797 0.078125 0.73438 0.23438 0.95312 0.16406 0.21875 0.39844 0.32812 0.70312 0.32812zm-0.9375-2.8125c0.19531-0.25 0.41016-0.4375 0.64062-0.5625 0.22656-0.125 0.49219-0.1875 0.79688-0.1875 0.53906 0 0.98438 0.21484 1.3281 0.64062 0.34375 0.42969 0.51562 0.97656 0.51562 1.6406 0 0.67969-0.17188 1.2305-0.51562 1.6562-0.34375 0.41797-0.78906 0.625-1.3281 0.625-0.30469 0-0.57031-0.058594-0.79688-0.17188-0.23047-0.125-0.44531-0.3125-0.64062-0.5625v0.625h-1.375v-6.0312h1.375z" />
        </symbol>
        <symbol id="g" overflow="visible">
            <path
                d="m0.09375-4.3438h1.3906l1.1719 2.9531 0.98438-2.9531h1.3906l-1.8281 4.75c-0.17969 0.48828-0.39062 0.82812-0.64062 1.0156-0.24219 0.19531-0.5625 0.29688-0.96875 0.29688h-0.79688v-0.92188h0.4375c0.22656 0 0.39453-0.039063 0.5-0.10938 0.11328-0.074219 0.19531-0.21094 0.25-0.40625l0.046875-0.10938z" />
        </symbol>
        <symbol id="i" overflow="visible">
            <path
                d="m5.9375-0.4375c-0.375 0.1875-0.76562 0.32812-1.1719 0.42188-0.39844 0.082031-0.80859 0.125-1.2344 0.125-0.96875 0-1.7344-0.26562-2.2969-0.79688-0.5625-0.53906-0.84375-1.2734-0.84375-2.2031 0-0.92578 0.28516-1.6562 0.85938-2.1875 0.57031-0.53906 1.3594-0.8125 2.3594-0.8125 0.38281 0 0.75391 0.039063 1.1094 0.10938 0.35156 0.074219 0.6875 0.18359 1 0.32812v1.1875c-0.32422-0.17578-0.64844-0.3125-0.96875-0.40625-0.3125-0.09375-0.63281-0.14062-0.95312-0.14062-0.59375 0-1.0547 0.16797-1.375 0.5-0.32422 0.33594-0.48438 0.80859-0.48438 1.4219 0 0.61719 0.15625 1.0898 0.46875 1.4219 0.3125 0.33594 0.75 0.5 1.3125 0.5 0.15625 0 0.30078-0.007812 0.4375-0.03125 0.13281-0.019531 0.25391-0.050781 0.35938-0.09375v-1.125h-0.90625v-1h2.3281z" />
        </symbol>
        <symbol id="f" overflow="visible">
            <path
                d="m5.0312-2.6406v2.6406h-1.3906v-2.0156c0-0.375-0.011719-0.63281-0.03125-0.78125-0.023437-0.14453-0.054687-0.25-0.09375-0.3125-0.054687-0.09375-0.125-0.16406-0.21875-0.21875-0.09375-0.050781-0.19922-0.078125-0.3125-0.078125-0.29297 0-0.52344 0.11719-0.6875 0.34375-0.16797 0.21875-0.25 0.52734-0.25 0.92188v2.1406h-1.375v-4.3438h1.375v0.64062c0.21875-0.25 0.44141-0.4375 0.67188-0.5625 0.23828-0.125 0.5-0.1875 0.78125-0.1875 0.5 0 0.87891 0.15625 1.1406 0.46875 0.25781 0.3125 0.39062 0.76172 0.39062 1.3438z" />
        </symbol>
        <symbol id="t" overflow="visible">
            <path
                d="m0.73438-5.7812h1.4844v2.1094l2.1562-2.1094h1.7344l-2.7969 2.7344 3.0781 3.0469h-1.875l-2.2969-2.2812v2.2812h-1.4844z" />
        </symbol>
        <symbol id="h" overflow="visible">
            <path
                d="m5.0312-2.6406v2.6406h-1.3906v-2.0156c0-0.375-0.011719-0.63281-0.03125-0.78125-0.023437-0.14453-0.054687-0.25-0.09375-0.3125-0.054687-0.09375-0.125-0.16406-0.21875-0.21875-0.09375-0.050781-0.19922-0.078125-0.3125-0.078125-0.29297 0-0.52344 0.11719-0.6875 0.34375-0.16797 0.21875-0.25 0.52734-0.25 0.92188v2.1406h-1.375v-6.0312h1.375v2.3281c0.21875-0.25 0.44141-0.4375 0.67188-0.5625 0.23828-0.125 0.5-0.1875 0.78125-0.1875 0.5 0 0.87891 0.15625 1.1406 0.46875 0.25781 0.3125 0.39062 0.76172 0.39062 1.3438z" />
        </symbol>
        <symbol id="a" overflow="visible">
            <path
                d="m2.7344-3.4531c-0.3125 0-0.55469 0.10938-0.71875 0.32812-0.15625 0.21875-0.23438 0.53906-0.23438 0.95312 0 0.41797 0.078125 0.74219 0.23438 0.96875 0.16406 0.21875 0.40625 0.32812 0.71875 0.32812 0.30078 0 0.53125-0.10938 0.6875-0.32812 0.16406-0.22656 0.25-0.55078 0.25-0.96875 0-0.41406-0.085937-0.73438-0.25-0.95312-0.15625-0.21875-0.38672-0.32812-0.6875-0.32812zm0-1c0.75 0 1.332 0.20312 1.75 0.60938 0.41406 0.40625 0.625 0.96484 0.625 1.6719 0 0.71875-0.21094 1.2812-0.625 1.6875-0.41797 0.39844-1 0.59375-1.75 0.59375s-1.3398-0.19531-1.7656-0.59375c-0.41797-0.40625-0.625-0.96875-0.625-1.6875 0-0.70703 0.20703-1.2656 0.625-1.6719 0.42578-0.40625 1.0156-0.60938 1.7656-0.60938z" />
        </symbol>
        <symbol id="s" overflow="visible">
            <path d="m0.73438-5.7812h1.4844v4.6562h2.625v1.125h-4.1094z" />
        </symbol>
        <symbol id="r" overflow="visible">
            <path
                d="m3.5156-6.0312v0.90625h-0.76562c-0.1875 0-0.32422 0.039062-0.40625 0.10938-0.074219 0.074219-0.10938 0.19922-0.10938 0.375v0.29688h1.1875v1h-1.1875v3.3438h-1.3906v-3.3438h-0.6875v-1h0.6875v-0.29688c0-0.47656 0.12891-0.82812 0.39062-1.0469 0.25781-0.22656 0.67188-0.34375 1.2344-0.34375z" />
        </symbol>
        <symbol id="q" overflow="visible">
            <path
                d="m4.6875-3.625c0.17578-0.25781 0.38281-0.46094 0.625-0.60938 0.23828-0.14453 0.50391-0.21875 0.79688-0.21875 0.5 0 0.87891 0.15625 1.1406 0.46875 0.25781 0.3125 0.39062 0.76172 0.39062 1.3438v2.6406h-1.3906v-2.2656-0.09375-0.15625c0-0.3125-0.046875-0.53516-0.14062-0.67188-0.085937-0.14453-0.22656-0.21875-0.42188-0.21875-0.27344 0-0.48047 0.10938-0.625 0.32812-0.13672 0.21875-0.21094 0.53906-0.21875 0.95312v2.125h-1.3906v-2.2656c0-0.47656-0.042969-0.78516-0.125-0.92188-0.085937-0.14453-0.23047-0.21875-0.4375-0.21875-0.27344 0-0.48047 0.10938-0.625 0.32812-0.14844 0.21875-0.21875 0.53125-0.21875 0.9375v2.1406h-1.3906v-4.3438h1.3906v0.64062c0.17578-0.25 0.375-0.4375 0.59375-0.5625s0.46094-0.1875 0.73438-0.1875c0.30078 0 0.56641 0.074219 0.79688 0.21875 0.22656 0.14844 0.39844 0.35156 0.51562 0.60938z" />
        </symbol>
        <symbol id="p" overflow="visible">
            <path
                d="m0.73438-5.7812h1.6562l2.1094 3.9688v-3.9688h1.4219v5.7812h-1.6719l-2.1094-3.9688v3.9688h-1.4062z" />
        </symbol>
        <symbol id="o" overflow="visible">
            <path
                d="m0.625-1.6875v-2.6562h1.3906v0.4375c0 0.24219-0.007813 0.53906-0.015625 0.89062v0.70312c0 0.35547 0.007812 0.60938 0.03125 0.76562 0.019531 0.14844 0.050781 0.25781 0.09375 0.32812 0.0625 0.09375 0.13281 0.16797 0.21875 0.21875 0.09375 0.042969 0.20312 0.0625 0.32812 0.0625 0.28125 0 0.50391-0.10938 0.67188-0.32812 0.16406-0.22656 0.25-0.53906 0.25-0.9375v-2.1406h1.3906v4.3438h-1.3906v-0.625c-0.21094 0.25-0.43359 0.4375-0.67188 0.5625-0.23047 0.11328-0.48438 0.17188-0.76562 0.17188-0.5 0-0.88281-0.14844-1.1406-0.45312-0.26172-0.3125-0.39062-0.75781-0.39062-1.3438z" />
        </symbol>
        <symbol id="n" overflow="visible">
            <path
                d="m0.73438-5.7812h2.4688c0.73828 0 1.3008 0.16406 1.6875 0.48438 0.39453 0.32422 0.59375 0.78906 0.59375 1.3906 0 0.61719-0.19922 1.0898-0.59375 1.4219-0.38672 0.32422-0.94922 0.48438-1.6875 0.48438h-0.98438v2h-1.4844zm1.4844 1.0781v1.6094h0.82812c0.28906 0 0.51562-0.066406 0.67188-0.20312 0.15625-0.14453 0.23438-0.34766 0.23438-0.60938 0-0.25-0.078125-0.44141-0.23438-0.57812-0.15625-0.14453-0.38281-0.21875-0.67188-0.21875z" />
        </symbol>
        <symbol id="m" overflow="visible">
            <path
                d="m0.67188-4.3438h1.375v4.2656c0 0.58203-0.14062 1.0234-0.42188 1.3281-0.27344 0.3125-0.67188 0.46875-1.2031 0.46875h-0.6875v-0.92188h0.25c0.25781 0 0.4375-0.058594 0.53125-0.17188 0.10156-0.11719 0.15625-0.35156 0.15625-0.70312zm0-1.6875h1.375v1.125h-1.375z" />
        </symbol>
        <symbol id="l" overflow="visible">
            <path
                d="m4.1719-4.2031v1.125c-0.1875-0.125-0.375-0.21875-0.5625-0.28125s-0.38672-0.09375-0.59375-0.09375c-0.38672 0-0.6875 0.11719-0.90625 0.34375-0.21875 0.21875-0.32812 0.53125-0.32812 0.9375s0.10938 0.72656 0.32812 0.95312c0.21875 0.23047 0.51953 0.34375 0.90625 0.34375 0.21875 0 0.42188-0.03125 0.60938-0.09375 0.19531-0.070312 0.37891-0.17188 0.54688-0.29688v1.1406c-0.21875 0.085938-0.44531 0.14062-0.67188 0.17188-0.21875 0.039062-0.4375 0.0625-0.65625 0.0625-0.78125 0-1.3984-0.19531-1.8438-0.59375-0.4375-0.40625-0.65625-0.96875-0.65625-1.6875 0-0.70703 0.21875-1.2656 0.65625-1.6719 0.44531-0.40625 1.0625-0.60938 1.8438-0.60938 0.22656 0 0.45312 0.023437 0.67188 0.0625 0.21875 0.042969 0.4375 0.10547 0.65625 0.1875z" />
        </symbol>
    </defs>
    <g>
        <path
            d="m346.46 72.266c17.594 8.9297 24.617 30.438 15.684 48.031-8.9297 17.594-30.434 24.613-48.031 15.684-17.594-8.9336-24.617-30.438-15.684-48.031 8.9336-17.594 30.438-24.617 48.031-15.684" />
        <path d="m370.55 375.79 7.9727-0.17188-1.3242-155.49c-3.9805 1.6797-7.8945 3.1016-11.727 4.2422z" />
        <path
            d="m372.5 189.01c1.5312 0 3.0195 0.23047 4.4453 0.64453l-0.25781-30.188-13.383 0.28125 1.0508 31.34c0.58984-0.24609 1.1719-0.47656 1.7695-0.73828 2.0273-0.89062 4.1719-1.3398 6.375-1.3398z" />
        <path
            d="m309.62 168.79c-0.27734-1.0195-0.46094-1.8203-0.56641-2.3281-0.054688-0.25-0.085938-0.42969-0.10547-0.52344l-0.007813-0.019531c-1.1562-6.9219-7.7109-11.59-14.629-10.43-6.9219 1.1562-11.59 7.7109-10.43 14.633l-0.003906-0.003906c0.19531 0.89453 2.168 13.18 10.191 26.535 2.7227 4.4883 6.2148 9.125 10.664 13.348 2.1445 2.0352 4.4883 3.9844 7.1133 5.7617 7.9805 5.4336 18.402 9.0625 30.41 9.0625h0.19922c7.1172 0 14.746-1.2266 22.902-3.7344 3.8164-1.1719 7.75-2.6172 11.809-4.3789 0.14453-0.0625 0.28906-0.11719 0.43359-0.17969 6.4219-2.8203 9.3516-10.312 6.5312-16.738-1.4297-3.2656-4.0742-5.6211-7.168-6.7852-2.9922-1.125-6.4102-1.1367-9.5703 0.25-1.0039 0.44141-1.9648 0.82812-2.9297 1.2148-9.043 3.625-16.309 4.9414-22.012 4.9414-7.2422-0.039063-12.168-1.9141-16.398-4.7188-3.8164-2.5312-6.9961-6.168-9.5273-10.074-1.6328-2.5195-3-5.1445-4.0742-7.668-1.3711-3.1914-2.2891-6.1211-2.832-8.1641z" />
        <path
            d="m358.48 371.8c0.019532-21.691-6.0039-41-14.699-57.074-13.098-24.172-31.793-41.492-47.09-53.121-2.4766-1.875-4.8555-3.582-7.1328-5.1602 2.3906-14.68 7.8906-29.645 13.828-43.367-4.5352-4.1484-8.5742-9.082-12.035-14.785-6.793-11.32-9.5117-21.953-10.535-27.281l-0.042969-0.22656c-1.4727-8.7852 4.3789-16.988 13.012-18.434 0.87109-0.14844 1.7617-0.21875 2.6406-0.21875 7.7812 0 14.367 5.5742 15.645 13.258l0.085938 0.39453c0.10156 0.48047 0.26953 1.2227 0.52734 2.168 0.48437 1.8086 1.3398 4.6055 2.6875 7.7266 0.83594 1.9648 1.7891 3.8242 2.8203 5.5742 6.1016-13.812 4.125-30.984-7.2305-36.969-0.94531-0.5-1.9453-0.9375-2.9844-1.3281l0.035156-0.10547c-9.4609-2.8906-17.535-4.1289-24.477-4.1289-5.043-0.03125-9.4648 0.65625-13.34 1.8242 2.0664-3.0352 3.6758-6.4453 4.6328-10.211 4.4062-17.32-6.0625-34.934-23.379-39.344-17.316-4.4062-34.934 6.0586-39.344 23.379-2.1914 8.6133-0.69922 17.293 3.4766 24.387-1.4961 0.14844-2.375 0.26953-2.375 0.26953s-16.988 8.7891-14.789 35.57c2.1992 26.781-2.6094 24.738-11.145 38.957-8.5352 14.215-18.516 51.828 10.195 48.484 28.711-3.3477 34.438 9.582 36.031-3.1211 0 0 0.61719-1.5586 1.6602-4.2852 0.97266 5.7773 3.0898 10.23 5.9258 13.711 0.23438 0.65234 0.49609 1.2969 0.80469 1.9297 0.003906 0.007812 0.007812 0.023437 0.019531 0.039062l0.007812-0.003906c0.71094 1.3164 12.504 27.461 12.363 56.82 0.003906 10.297-1.3672 20.941-4.8242 31.277-3.4766 10.348-8.9609 20.43-17.688 30.094-7.3594 8.1289-6.7344 20.684 1.3945 28.043 3.8008 3.4414 8.5703 5.1367 13.32 5.1367 5.4141 0 10.805-2.2031 14.727-6.5312 12.535-13.828 20.875-29.051 25.906-44.16 5.0508-15.117 6.875-30.074 6.875-43.863-0.019531-5.2578-0.28906-10.352-0.74609-15.242 6.1289 6.75 11.785 14.395 16.137 22.742 5.7656 11.078 9.3633 23.234 9.3789 37.168 0 0.39062 0 0.78516-0.007812 1.1836-0.14062 10.961 8.6328 19.965 19.598 20.105 10.961 0.14062 19.961-8.6328 20.105-19.598h-0.003906c0.027343-0.55469 0.027343-1.1211 0.027343-1.6836zm-101.6-238.32c-7.3203 3.8477-15.656 4.3867-21.582-2.0156-3.7734-4.0742-5.8867-12.945-1.9727-17.539 6.5586-7.7031 23.344-2.9531 18.18 8.2578-0.30469 0.65625-2.3633-1.5781-2.0234-2.3125 4.4531-9.668-12.531-9.1758-15.277-1.6758-6.5508 17.895 17.848 18.559 26.289 8.3164 7.4336-9.0234 3.8594-19.934-7.4648-23.918-6.3086-2.2188-13.695-2.5938-19.324 1.6836-10.434 7.918-11.711 22.66-6.3594 33.957-0.25391 0-0.50781-0.003906-0.75781-0.003906h-0.53516c-3.3672-6.6211-4.9414-14.273-3.3008-21.598 2.25-10.043 10.145-19.512 21.453-18.312 5.5859 0.59375 12.289 2.4258 16.461 6.2344 2.1953 2.0039 3.8867 5.1094 5.1602 7.543 3.793 7.2383 1.6797 15.797-8.9453 21.383zm7.5703 27.426c-0.92969 1.4648-1.8242 2.8984-2.6992 4.3203 0.49219-4.3867 0.55859-8.1484 0.066406-11.008 3.5117-3.3789 8.5156-6.2109 16.129-7.1797-4.8867 3.1719-9.5273 7.7031-13.496 13.867z" />
        <path
            d="m602 208.86-2.1758-6.7344 25.602-17.883 15.488-35.734-19.855 29.379-24.699 13.535-20.566-63.562 2.0039-25.605 49.613-24.426 6.3516-33.352-11.91 27.266-43.062 17.855 4.1523-53.062-45.266-36.531 35.734 43.676-11.117 85.766 15.473 45.535-54.387-10.594-35.734-44.473 22.234 56.383 72.809 13.168 7.3984 21.773-9.3203 60.938c-46.027 14.672-94.094 32.078-119.33 51.309-50.027 38.113-48.32 72.137-196.02 105.49-96.367 21.762-200.11 95.414-200.11 95.414l-52.289 35.613h673.95l0.003906-322.28c-14.512 6.7734-46.184 15.902-82.035 26.91zm65.91 56.262v3.418c-10.91 3.918-23.613 8.2148-37.738 12.988-53.699 18.145-127.24 43-157.81 67.809-11.078 8.9922-19.297 17.625-27.996 26.77-29.543 31.043-56.633 52.824-176.16 83.695-75.742 19.562-169.7 68.676-198.44 88.207l-17.562 0.20703s140.96-83.383 217.42-100.65c117.46-26.523 145.54-54.277 175.27-83.656 8.7578-8.6562 17.031-16.832 28.098-25.266 30.547-23.273 102.99-45.305 155.89-61.391 14.715-4.4727 27.887-8.4766 39.039-12.133z" />
        <use x="13.023438" y="583.824219" xlink:href="#u" />
        <use x="18.851562" y="583.824219" xlink:href="#e" />
        <use x="22.769531" y="583.824219" xlink:href="#b" />
        <use x="28.15625" y="583.824219" xlink:href="#d" />
        <use x="33.515625" y="583.824219" xlink:href="#c" />
        <use x="37.3125" y="583.824219" xlink:href="#b" />
        <use x="42.695312" y="583.824219" xlink:href="#k" />
        <use x="51.144531" y="583.824219" xlink:href="#j" />
        <use x="56.832031" y="583.824219" xlink:href="#g" />
        <use x="64.773438" y="583.824219" xlink:href="#i" />
        <use x="71.289062" y="583.824219" xlink:href="#d" />
        <use x="76.648438" y="583.824219" xlink:href="#f" />
        <use x="85.066406" y="583.824219" xlink:href="#t" />
        <use x="91.21875" y="583.824219" xlink:href="#h" />
        <use x="96.875" y="583.824219" xlink:href="#a" />
        <use x="102.328125" y="583.824219" xlink:href="#a" />
        <use x="107.785156" y="583.824219" xlink:href="#f" />
        <use x="116.203125" y="583.824219" xlink:href="#s" />
        <use x="121.265625" y="583.824219" xlink:href="#d" />
        <use x="126.621094" y="583.824219" xlink:href="#g" />
        <use x="13.023438" y="591.765625" xlink:href="#r" />
        <use x="16.480469" y="591.765625" xlink:href="#e" />
        <use x="20.398438" y="591.765625" xlink:href="#a" />
        <use x="25.851562" y="591.765625" xlink:href="#q" />
        <use x="36.890625" y="591.765625" xlink:href="#c" />
        <use x="40.6875" y="591.765625" xlink:href="#h" />
        <use x="46.339844" y="591.765625" xlink:href="#b" />
        <use x="54.492188" y="591.765625" xlink:href="#p" />
        <use x="61.136719" y="591.765625" xlink:href="#a" />
        <use x="66.59375" y="591.765625" xlink:href="#o" />
        <use x="72.246094" y="591.765625" xlink:href="#f" />
        <use x="80.664062" y="591.765625" xlink:href="#n" />
        <use x="86.484375" y="591.765625" xlink:href="#e" />
        <use x="90.402344" y="591.765625" xlink:href="#a" />
        <use x="95.859375" y="591.765625" xlink:href="#m" />
        <use x="98.582031" y="591.765625" xlink:href="#b" />
        <use x="103.964844" y="591.765625" xlink:href="#l" />
        <use x="108.671875" y="591.765625" xlink:href="#c" />
    </g>
</svg>