<?xml version="1.0" encoding="UTF-8"?>
<svg width="700pt" height="700pt" version="1.1" viewBox="0 0 700 500" xmlns="http://www.w3.org/2000/svg">
    <g fill="rgb(255,251,235)">
        <path
            d="m350 271.25c25.527 0 50.008-10.141 68.059-28.191 18.051-18.051 28.191-42.531 28.191-68.059s-10.141-50.008-28.191-68.059c-18.051-18.051-42.531-28.191-68.059-28.191s-50.008 10.141-68.059 28.191c-18.051 18.051-28.191 42.531-28.191 68.059 0.046875 25.512 10.203 49.969 28.242 68.008 18.039 18.039 42.496 28.195 68.008 28.242zm0-17.5c-16.254-0.019531-32.102-5.0781-45.359-14.484-13.258-9.4023-23.273-22.684-28.664-38.016 71.398-3.1484 99.574-30.977 110.6-52.5h-0.003906c10.277 15.25 24.57 27.363 41.301 35-2.1094 19.199-11.215 36.949-25.578 49.863-14.363 12.91-32.98 20.078-52.297 20.137zm0-157.5c5.1172-0.015625 10.219 0.51562 15.227 1.5742l4.7266 1.2266h-0.003906c3.207 0.80469 6.3633 1.8008 9.4492 2.9727 1.75 0 3.5 1.75 5.25 2.625 2.6602 1.2266 5.2305 2.6328 7.7031 4.2031 1.7031 1.0664 3.3359 2.2344 4.8984 3.5l6.4766 5.4258c1.5742 1.3984 2.9766 2.9766 4.375 4.375l5.25 6.4766c1.2266 1.5742 2.2734 3.3242 3.5 5.0742v-0.003906c1.418 2.375 2.7031 4.832 3.8477 7.3516 1.0195 1.8555 1.8984 3.7852 2.625 5.7734 1.0508 2.625 1.75 5.4258 2.625 8.2266s1.0508 4.0234 1.3984 6.125h0.003906c0.085938 0.69531 0.085938 1.4023 0 2.0977-16.73-9.0586-29.051-24.539-34.125-42.875-1.0352-4.2539-5.1094-7.043-9.4531-6.4727-4.3594 0.45312-7.6367 4.1914-7.5234 8.5742 0 2.2734-2.2734 57.75-104.12 61.074-0.47266-2.8359-0.76562-5.6992-0.875-8.5742 0.046875-20.871 8.3594-40.875 23.117-55.633 14.758-14.758 34.762-23.07 55.633-23.117z" />
        <path
            d="m472.5 309.93c-6.2227-9.9688-16.184-17.031-27.648-19.602-2.1641-7.7422-7.7812-14.055-15.219-17.105s-15.867-2.5-22.844 1.4922c-6.9805 3.9922-11.727 10.98-12.863 18.938-11.785 11.473-27.656 17.77-44.102 17.5-16.461 0.37109-32.371-5.9414-44.098-17.5-1.1406-7.957-5.8867-14.945-12.863-18.938-6.9805-3.9922-15.41-4.543-22.848-1.4922s-13.051 9.3633-15.215 17.105c-11.34 2.6562-21.16 9.707-27.301 19.602l-55.824 92.574c-3.5742 6.0078-5.4609 12.871-5.4609 19.863 0 6.9922 1.8867 13.852 5.4609 19.863 3.8945 6.6719 9.4961 12.188 16.234 15.973 6.7383 3.7812 14.363 5.6992 22.09 5.5508h22.051c9.9766 11.152 24.234 17.52 39.199 17.5 15.297 0.15234 29.898-6.3789 39.984-17.879 10.086-11.496 14.656-26.824 12.516-41.973-1.9336-12.234-8.1328-23.391-17.5-31.5v-73.848c13.223 7.9102 28.344 12.086 43.75 12.086s30.527-4.1758 43.75-12.086v74.199c-13.059 11.449-19.609 28.613-17.5 45.852 1.6133 11.457 6.9648 22.059 15.227 30.16 8.2578 8.1016 18.961 13.246 30.449 14.637h6.4766-0.003906c14.965 0.019531 29.227-6.3438 39.203-17.5h22.398c7.6875 0.25391 15.305-1.543 22.066-5.2031 6.7656-3.6562 12.438-9.0508 16.434-15.621 3.6055-6.0625 5.5078-12.984 5.5078-20.035 0-7.0547-1.9023-13.977-5.5078-20.039zm-175 141.75c-7.1172 7.582-17.168 11.723-27.562 11.352-10.395-0.36719-20.125-5.207-26.688-13.277-1.6328-2.2266-4.2383-3.5273-7-3.5h-26.25c-9.4023 0.40625-18.32-4.1836-23.449-12.074-2.0234-3.3555-3.0898-7.1953-3.0898-11.113s1.0664-7.7578 3.0898-11.113l55.477-92.926h-0.003906c2.7656-4.3828 6.707-7.8984 11.375-10.148v70c-8.3242 2.9688-15.777 7.9609-21.699 14.523h-21.699c-4.832 0-8.75 3.918-8.75 8.75 0 4.8359 3.918 8.75 8.75 8.75h26.25c2.7656 0.058593 5.3867-1.25 7-3.5 5.0938-6.8164 12.496-11.543 20.824-13.297 3.8281-0.61719 7.7266-0.61719 11.551 0 7.6094 0.95703 14.691 4.3867 20.16 9.7617 5.4727 5.375 9.0234 12.395 10.113 19.988 1.3672 10.051-1.6992 20.203-8.3984 27.824zm-20.125-75.074h-6.125v-79.102c0-4.832 3.918-8.75 8.75-8.75s8.75 3.918 8.75 8.75v81.898c-3.6367-1.2812-7.3867-2.2148-11.199-2.7969zm142.45-87.5c2.3516-0.003906 4.6055 0.94531 6.25 2.6211 1.6484 1.6797 2.5469 3.9531 2.5 6.3008v78.75c-5.9844 0.074218-11.906 1.1992-17.5 3.3281v-82.602c0-2.3516 0.94531-4.6055 2.625-6.25 1.6797-1.6445 3.9492-2.5469 6.3008-2.5zm93.449 145.43v-0.003906c-5.1797 7.7031-14 12.148-23.273 11.727h-26.25c-2.7617-0.027344-5.3672 1.2734-7 3.5-6.0859 8.1172-15.398 13.191-25.52 13.91-10.121 0.72266-20.055-2.9883-27.23-10.16-7.1719-7.1758-10.883-17.109-10.16-27.23 0.71875-10.121 5.793-19.434 13.91-25.52 8.0781-5.8477 18.199-8.125 28-6.3008 8.4297 1.6211 15.934 6.3711 21 13.301 1.6133 2.25 4.2344 3.5586 7 3.5h26.25c4.832 0 8.75-3.918 8.75-8.75s-3.918-8.75-8.75-8.75h-22.051c-5.918-6.5625-13.375-11.555-21.699-14.523v-70c4.707 2.1914 8.6641 5.7227 11.375 10.148l55.301 92.574c2.0664 3.3203 3.2031 7.1328 3.2969 11.043 0.089844 3.9062-0.86719 7.7695-2.7734 11.184z" />
    </g>
</svg>