<?xml version="1.0" encoding="UTF-8"?>
<svg width="700pt" height="700pt" version="1.1" viewBox="0 0 700 700" xmlns="http://www.w3.org/2000/svg" fill="white"
    stroke="white">
    <g fill="rgb(255,251,235)">
        <path
            d="m366.5 140 108.41-108.41c4.5508-4.5508 4.5508-11.945 0-16.496-4.5508-4.5508-11.945-4.5508-16.496 0l-108.41 108.41-108.41-108.43c-4.5508-4.5508-11.945-4.5508-16.496 0-4.5508 4.5508-4.5508 11.945 0 16.496l108.41 108.43h-263.5v420h560v-420zm216.84 326.67c0 25.668-21 46.668-46.668 46.668l-373.33-0.003907c-25.668 0-46.668-21-46.668-46.668l0.003907-233.33c0-25.668 21-46.668 46.668-46.668h373.33c25.668 0 46.668 21 46.668 46.668z" />
        <path
            d="m303.33 303.33c0 25.773-20.891 46.668-46.664 46.668-25.773 0-46.668-20.895-46.668-46.668 0-25.773 20.895-46.664 46.668-46.664 25.773 0 46.664 20.891 46.664 46.664" />
        <path
            d="m373.33 420h163.33v-186.67h-163.33zm70-151.67c0-6.4414 5.2266-11.668 11.668-11.668s11.668 5.2266 11.668 11.668v70c0 6.4414-5.2266 11.668-11.668 11.668s-11.668-5.2266-11.668-11.668zm11.668 105c6.4414 0 11.668 5.2266 11.668 11.668s-5.2266 11.668-11.668 11.668-11.668-5.2266-11.668-11.668 5.2266-11.668 11.668-11.668z" />
        <path
            d="m525 466.67h-198.33v-70c0-12.902-10.43-23.332-23.332-23.332l-93.336-0.003907c-12.902 0-23.332 10.43-23.332 23.332v70l-11.668 0.003907c-6.4414 0-11.668 5.2266-11.668 11.664 0 6.4414 5.2266 11.668 11.668 11.668h350c6.4414 0 11.668-5.2266 11.668-11.668 0-6.4375-5.2266-11.664-11.668-11.664z" />
    </g>
</svg>