<?xml version="1.0" encoding="UTF-8"?>
<svg width="700pt" height="700pt" version="1.1" viewBox="0 0 700 500" xmlns="http://www.w3.org/2000/svg"
    xmlns:xlink="http://www.w3.org/1999/xlink" fill="rgb(255,251,235)">
    <defs>
        <symbol id="t" overflow="visible">
            <path
                d="m18.766-1.125c-0.96875 0.5-1.9805 0.875-3.0312 1.125-1.043 0.25781-2.1367 0.39062-3.2812 0.39062-3.3984 0-6.0898-0.94531-8.0781-2.8438-1.9922-1.9062-2.9844-4.4844-2.9844-7.7344 0-3.2578 0.99219-5.8359 2.9844-7.7344 1.9883-1.9062 4.6797-2.8594 8.0781-2.8594 1.1445 0 2.2383 0.13281 3.2812 0.39062 1.0508 0.25 2.0625 0.625 3.0312 1.125v4.2188c-0.98047-0.65625-1.9453-1.1406-2.8906-1.4531-0.94922-0.3125-1.9492-0.46875-3-0.46875-1.875 0-3.3516 0.60547-4.4219 1.8125-1.0742 1.1992-1.6094 2.8555-1.6094 4.9688 0 2.1055 0.53516 3.7617 1.6094 4.9688 1.0703 1.1992 2.5469 1.7969 4.4219 1.7969 1.0508 0 2.0508-0.14844 3-0.45312 0.94531-0.3125 1.9102-0.80078 2.8906-1.4688z" />
        </symbol>
        <symbol id="c" overflow="visible">
            <path
                d="m13.734-11.141c-0.4375-0.19531-0.87109-0.34375-1.2969-0.4375-0.41797-0.10156-0.83984-0.15625-1.2656-0.15625-1.2617 0-2.2305 0.40625-2.9062 1.2188-0.67969 0.80469-1.0156 1.9531-1.0156 3.4531v7.0625h-4.8906v-15.312h4.8906v2.5156c0.625-1 1.3438-1.7266 2.1562-2.1875 0.82031-0.46875 1.8008-0.70312 2.9375-0.70312 0.16406 0 0.34375 0.011719 0.53125 0.03125 0.19531 0.011719 0.47656 0.039062 0.84375 0.078125z" />
        </symbol>
        <symbol id="a" overflow="visible">
            <path
                d="m17.641-7.7031v1.4062h-11.453c0.125 1.1484 0.53906 2.0078 1.25 2.5781 0.70703 0.57422 1.7031 0.85938 2.9844 0.85938 1.0312 0 2.082-0.14844 3.1562-0.45312 1.082-0.3125 2.1914-0.77344 3.3281-1.3906v3.7656c-1.1562 0.4375-2.3125 0.76562-3.4688 0.98438-1.1562 0.22656-2.3125 0.34375-3.4688 0.34375-2.7734 0-4.9297-0.70312-6.4688-2.1094-1.5312-1.4062-2.2969-3.3789-2.2969-5.9219 0-2.5 0.75391-4.4609 2.2656-5.8906 1.5078-1.4375 3.582-2.1562 6.2188-2.1562 2.4062 0 4.332 0.73047 5.7812 2.1875 1.4453 1.4492 2.1719 3.3828 2.1719 5.7969zm-5.0312-1.625c0-0.92578-0.27344-1.6719-0.8125-2.2344-0.54297-0.57031-1.25-0.85938-2.125-0.85938-0.94922 0-1.7188 0.26562-2.3125 0.79688s-0.96484 1.2969-1.1094 2.2969z" />
        </symbol>
        <symbol id="e" overflow="visible">
            <path
                d="m9.2188-6.8906c-1.0234 0-1.793 0.17188-2.3125 0.51562-0.51172 0.34375-0.76562 0.85547-0.76562 1.5312 0 0.625 0.20703 1.1172 0.625 1.4688 0.41406 0.34375 0.98828 0.51562 1.7188 0.51562 0.92578 0 1.7031-0.32812 2.3281-0.98438 0.63281-0.66406 0.95312-1.4922 0.95312-2.4844v-0.5625zm7.4688-1.8438v8.7344h-4.9219v-2.2656c-0.65625 0.92969-1.3984 1.6055-2.2188 2.0312-0.82422 0.41406-1.8242 0.625-3 0.625-1.5859 0-2.8711-0.45703-3.8594-1.375-0.99219-0.92578-1.4844-2.1289-1.4844-3.6094 0-1.7891 0.61328-3.1016 1.8438-3.9375 1.2383-0.84375 3.1797-1.2656 5.8281-1.2656h2.8906v-0.39062c0-0.76953-0.30859-1.332-0.92188-1.6875-0.61719-0.36328-1.5703-0.54688-2.8594-0.54688-1.0547 0-2.0312 0.10547-2.9375 0.3125-0.89844 0.21094-1.7305 0.52344-2.5 0.9375v-3.7344c1.0391-0.25 2.0859-0.44141 3.1406-0.57812 1.0625-0.13281 2.125-0.20312 3.1875-0.20312 2.7578 0 4.75 0.54688 5.9688 1.6406 1.2266 1.0859 1.8438 2.8555 1.8438 5.3125z" />
        </symbol>
        <symbol id="b" overflow="visible">
            <path
                d="m7.7031-19.656v4.3438h5.0469v3.5h-5.0469v6.5c0 0.71094 0.14062 1.1875 0.42188 1.4375s0.83594 0.375 1.6719 0.375h2.5156v3.5h-4.1875c-1.9375 0-3.3125-0.39844-4.125-1.2031-0.80469-0.8125-1.2031-2.1797-1.2031-4.1094v-6.5h-2.4219v-3.5h2.4219v-4.3438z" />
        </symbol>
        <symbol id="j" overflow="visible">
            <path
                d="m12.766-13.078v-8.2031h4.9219v21.281h-4.9219v-2.2188c-0.66797 0.90625-1.4062 1.5703-2.2188 1.9844s-1.7578 0.625-2.8281 0.625c-1.8867 0-3.4336-0.75-4.6406-2.25-1.2109-1.5-1.8125-3.4258-1.8125-5.7812 0-2.3633 0.60156-4.2969 1.8125-5.7969 1.207-1.5 2.7539-2.25 4.6406-2.25 1.0625 0 2 0.21484 2.8125 0.64062 0.82031 0.42969 1.5664 1.0859 2.2344 1.9688zm-3.2188 9.9219c1.0391 0 1.8359-0.37891 2.3906-1.1406 0.55078-0.76953 0.82812-1.8828 0.82812-3.3438 0-1.457-0.27734-2.5664-0.82812-3.3281-0.55469-0.76953-1.3516-1.1562-2.3906-1.1562-1.043 0-1.8398 0.38672-2.3906 1.1562-0.55469 0.76172-0.82812 1.8711-0.82812 3.3281 0 1.4609 0.27344 2.5742 0.82812 3.3438 0.55078 0.76172 1.3477 1.1406 2.3906 1.1406z" />
        </symbol>
        <symbol id="i" overflow="visible">
            <path
                d="m10.5-3.1562c1.0508 0 1.8516-0.37891 2.4062-1.1406 0.55078-0.76953 0.82812-1.8828 0.82812-3.3438 0-1.457-0.27734-2.5664-0.82812-3.3281-0.55469-0.76953-1.3555-1.1562-2.4062-1.1562-1.0547 0-1.8594 0.38672-2.4219 1.1562-0.55469 0.77344-0.82812 1.8828-0.82812 3.3281 0 1.4492 0.27344 2.5586 0.82812 3.3281 0.5625 0.77344 1.3672 1.1562 2.4219 1.1562zm-3.25-9.9219c0.67578-0.88281 1.4219-1.5391 2.2344-1.9688 0.82031-0.42578 1.7656-0.64062 2.8281-0.64062 1.8945 0 3.4453 0.75 4.6562 2.25 1.207 1.5 1.8125 3.4336 1.8125 5.7969 0 2.3555-0.60547 4.2812-1.8125 5.7812-1.2109 1.5-2.7617 2.25-4.6562 2.25-1.0625 0-2.0078-0.21094-2.8281-0.625-0.8125-0.42578-1.5586-1.0859-2.2344-1.9844v2.2188h-4.8906v-21.281h4.8906z" />
        </symbol>
        <symbol id="h" overflow="visible">
            <path
                d="m0.34375-15.312h4.8906l4.125 10.391 3.5-10.391h4.8906l-6.4375 16.766c-0.64844 1.6953-1.4023 2.8828-2.2656 3.5625-0.86719 0.6875-2 1.0312-3.4062 1.0312h-2.8438v-3.2188h1.5312c0.83203 0 1.4375-0.13672 1.8125-0.40625 0.38281-0.26172 0.67969-0.73047 0.89062-1.4062l0.14062-0.42188z" />
        </symbol>
        <symbol id="g" overflow="visible">
            <path
                d="m14.953-3.7188h-8.2188l-1.3125 3.7188h-5.2812l7.5625-20.406h6.2656l7.5625 20.406h-5.2812zm-6.9062-3.7812h5.5781l-2.7812-8.125z" />
        </symbol>
        <symbol id="s" overflow="visible">
            <path d="m2.3594-21.281h4.8906v21.281h-4.8906z" />
        </symbol>
        <symbol id="f" overflow="visible">
            <path
                d="m17.75-9.3281v9.3281h-4.9219v-7.1406c0-1.3203-0.03125-2.2344-0.09375-2.7344s-0.16797-0.86719-0.3125-1.1094c-0.1875-0.3125-0.44922-0.55469-0.78125-0.73438-0.32422-0.17578-0.69531-0.26562-1.1094-0.26562-1.0234 0-1.8242 0.39844-2.4062 1.1875-0.58594 0.78125-0.875 1.8711-0.875 3.2656v7.5312h-4.8906v-15.312h4.8906v2.2344c0.73828-0.88281 1.5195-1.5391 2.3438-1.9688 0.83203-0.42578 1.75-0.64062 2.75-0.64062 1.7695 0 3.1133 0.54688 4.0312 1.6406 0.91406 1.0859 1.375 2.6562 1.375 4.7188z" />
        </symbol>
        <symbol id="r" overflow="visible">
            <path
                d="m12.422-21.281v3.2188h-2.7031c-0.6875 0-1.1719 0.125-1.4531 0.375-0.27344 0.25-0.40625 0.6875-0.40625 1.3125v1.0625h4.1875v3.5h-4.1875v11.812h-4.8906v-11.812h-2.4375v-3.5h2.4375v-1.0625c0-1.6641 0.46094-2.8984 1.3906-3.7031 0.92578-0.80078 2.3672-1.2031 4.3281-1.2031z" />
        </symbol>
        <symbol id="d" overflow="visible">
            <path
                d="m9.6406-12.188c-1.0859 0-1.9141 0.39062-2.4844 1.1719-0.57422 0.78125-0.85938 1.9062-0.85938 3.375s0.28516 2.5938 0.85938 3.375c0.57031 0.77344 1.3984 1.1562 2.4844 1.1562 1.0625 0 1.875-0.38281 2.4375-1.1562 0.57031-0.78125 0.85938-1.9062 0.85938-3.375s-0.28906-2.5938-0.85938-3.375c-0.5625-0.78125-1.375-1.1719-2.4375-1.1719zm0-3.5c2.6328 0 4.6914 0.71484 6.1719 2.1406 1.4766 1.418 2.2188 3.3867 2.2188 5.9062 0 2.5117-0.74219 4.4805-2.2188 5.9062-1.4805 1.418-3.5391 2.125-6.1719 2.125-2.6484 0-4.7148-0.70703-6.2031-2.125-1.4922-1.4258-2.2344-3.3945-2.2344-5.9062 0-2.5195 0.74219-4.4883 2.2344-5.9062 1.4883-1.4258 3.5547-2.1406 6.2031-2.1406z" />
        </symbol>
        <symbol id="q" overflow="visible">
            <path
                d="m16.547-12.766c0.61328-0.94531 1.3477-1.6719 2.2031-2.1719 0.85156-0.5 1.7891-0.75 2.8125-0.75 1.7578 0 3.0977 0.54688 4.0156 1.6406 0.92578 1.0859 1.3906 2.6562 1.3906 4.7188v9.3281h-4.9219v-7.9844-0.35938c0.007813-0.13281 0.015625-0.32031 0.015625-0.5625 0-1.082-0.16406-1.8633-0.48438-2.3438-0.3125-0.48828-0.82422-0.73438-1.5312-0.73438-0.92969 0-1.6484 0.38672-2.1562 1.1562-0.51172 0.76172-0.77344 1.8672-0.78125 3.3125v7.5156h-4.9219v-7.9844c0-1.6953-0.14844-2.7852-0.4375-3.2656-0.29297-0.48828-0.8125-0.73438-1.5625-0.73438-0.9375 0-1.6641 0.38672-2.1719 1.1562-0.51172 0.76172-0.76562 1.8594-0.76562 3.2969v7.5312h-4.9219v-15.312h4.9219v2.2344c0.60156-0.86328 1.2891-1.5156 2.0625-1.9531 0.78125-0.4375 1.6406-0.65625 2.5781-0.65625 1.0625 0 2 0.25781 2.8125 0.76562 0.8125 0.51172 1.4258 1.2305 1.8438 2.1562z" />
        </symbol>
        <symbol id="p" overflow="visible">
            <path
                d="m17.75-9.3281v9.3281h-4.9219v-7.1094c0-1.3438-0.03125-2.2656-0.09375-2.7656s-0.16797-0.86719-0.3125-1.1094c-0.1875-0.3125-0.44922-0.55469-0.78125-0.73438-0.32422-0.17578-0.69531-0.26562-1.1094-0.26562-1.0234 0-1.8242 0.39844-2.4062 1.1875-0.58594 0.78125-0.875 1.8711-0.875 3.2656v7.5312h-4.8906v-21.281h4.8906v8.2031c0.73828-0.88281 1.5195-1.5391 2.3438-1.9688 0.83203-0.42578 1.75-0.64062 2.75-0.64062 1.7695 0 3.1133 0.54688 4.0312 1.6406 0.91406 1.0859 1.375 2.6562 1.375 4.7188z" />
        </symbol>
        <symbol id="o" overflow="visible">
            <path d="m2.5781-20.406h5.875l7.4219 14v-14h4.9844v20.406h-5.875l-7.4219-14v14h-4.9844z" />
        </symbol>
        <symbol id="n" overflow="visible">
            <path
                d="m2.1875-5.9688v-9.3438h4.9219v1.5312c0 0.83594-0.007813 1.875-0.015625 3.125-0.011719 1.25-0.015625 2.0859-0.015625 2.5 0 1.2422 0.03125 2.1328 0.09375 2.6719 0.070313 0.54297 0.17969 0.93359 0.32812 1.1719 0.20703 0.32422 0.47266 0.57422 0.79688 0.75 0.32031 0.16797 0.69141 0.25 1.1094 0.25 1.0195 0 1.8203-0.39062 2.4062-1.1719 0.58203-0.78125 0.875-1.8672 0.875-3.2656v-7.5625h4.8906v15.312h-4.8906v-2.2188c-0.74219 0.89844-1.5234 1.5586-2.3438 1.9844-0.82422 0.41406-1.7344 0.625-2.7344 0.625-1.7617 0-3.1055-0.53906-4.0312-1.625-0.92969-1.082-1.3906-2.6602-1.3906-4.7344z" />
        </symbol>
        <symbol id="m" overflow="visible">
            <path
                d="m2.5781-20.406h8.7344c2.5938 0 4.582 0.57812 5.9688 1.7344 1.3945 1.1484 2.0938 2.7891 2.0938 4.9219 0 2.1367-0.69922 3.7812-2.0938 4.9375-1.3867 1.1562-3.375 1.7344-5.9688 1.7344h-3.4844v7.0781h-5.25zm5.25 3.8125v5.7031h2.9219c1.0195 0 1.8047-0.25 2.3594-0.75 0.5625-0.5 0.84375-1.2031 0.84375-2.1094 0-0.91406-0.28125-1.6172-0.84375-2.1094-0.55469-0.48828-1.3398-0.73438-2.3594-0.73438z" />
        </symbol>
        <symbol id="l" overflow="visible">
            <path
                d="m2.3594-15.312h4.8906v15.031c0 2.0508-0.49609 3.6172-1.4844 4.7031-0.98047 1.082-2.4062 1.625-4.2812 1.625h-2.4219v-3.2188h0.85938c0.92578 0 1.5625-0.21094 1.9062-0.625 0.35156-0.41797 0.53125-1.2461 0.53125-2.4844zm0-5.9688h4.8906v4h-4.8906z" />
        </symbol>
        <symbol id="k" overflow="visible">
            <path
                d="m14.719-14.828v3.9844c-0.65625-0.45703-1.3242-0.79688-2-1.0156-0.66797-0.21875-1.3594-0.32812-2.0781-0.32812-1.3672 0-2.4336 0.40234-3.2031 1.2031-0.76172 0.79297-1.1406 1.9062-1.1406 3.3438 0 1.4297 0.37891 2.543 1.1406 3.3438 0.76953 0.79297 1.8359 1.1875 3.2031 1.1875 0.75781 0 1.4844-0.10938 2.1719-0.32812 0.6875-0.22656 1.3203-0.56641 1.9062-1.0156v4c-0.76172 0.28125-1.5391 0.48828-2.3281 0.625-0.78125 0.14453-1.5742 0.21875-2.375 0.21875-2.7617 0-4.9219-0.70703-6.4844-2.125-1.5547-1.4141-2.3281-3.3828-2.3281-5.9062 0-2.5312 0.77344-4.5039 2.3281-5.9219 1.5625-1.4141 3.7227-2.125 6.4844-2.125 0.80078 0 1.5938 0.074219 2.375 0.21875 0.78125 0.13672 1.5547 0.35156 2.3281 0.64062z" />
        </symbol>
    </defs>
    <g>
        <path
            d="m115.45 191.59c12.293-34.293 47.566-43.898 104.96-28.441 32.609 8.7734 85.496 30.426 76.281 77.027-60.074 22.531-140.62 0.9375-181.25-48.586zm128.63 63.75c-47.711 0-96.777-19.758-128.27-54.203-30.664 65.406-20.77 143.38 22.5 174.57 0.003907 0.003906 0.003907 0.003906 0.011719 0.011719 8.3945 6.0469 15.902 16.891 17.719 28.668 7.5547-9.2344 19.234-15.254 28.789-16.211 53.07-5.3828 100.66-67.961 106.8-139.96-15.203 4.793-31.293 7.1211-47.551 7.1211zm-11.254-99.23c-0.3125 1.6055 0.72656 3.1641 2.3359 3.4844 0.19531 0.039062 0.38672 0.054687 0.57812 0.054687 1.3828 0 2.625-0.98047 2.9062-2.3906 1.2891-6.5469 5.0586-12.18 10.328-15.469 4.4336-2.7617 9.5859-3.5664 14.516-2.2344 0.125 0.035157 0.24609 0.003907 0.37109 0.023438 7.5156 9.3125 16.297 17.977 26.145 25.574 15.371 11.859 31.84 20.133 48.613 24.641 12.672 5.2812 21.453 14.074 25.375 25.484 4.3438 12.656 2.2578 27.859-5.7344 41.703-0.82422 1.418-0.33594 3.2305 1.082 4.0469 0.46875 0.26953 0.98047 0.39844 1.4844 0.39844 1.0195 0 2.0234-0.53125 2.5664-1.4844 8.8555-15.328 11.117-32.312 6.2109-46.594-2.7617-8.043-7.5977-14.906-14.223-20.406 4.3281 0.50781 8.6562 0.85547 12.98 0.85547 7.4805 0 14.941-0.76562 22.293-2.3203 1.5977-0.33594 2.6211-1.9102 2.2852-3.5117-0.33984-1.6055-1.9219-2.5977-3.5117-2.2852-16.004 3.375-32.535 2.8125-48.793-1.4883-0.085937-0.035156-0.16406-0.078125-0.25391-0.11719-0.13281-0.054687-0.26953-0.042968-0.41016-0.078124-15.965-4.3164-31.664-12.219-46.344-23.547-30.824-23.777-50.926-58.234-52.465-89.926-0.078125-1.6367-1.5586-2.9023-3.1016-2.8164-1.6367 0.078125-2.8945 1.4688-2.8164 3.1016 1.0117 20.82 9.5586 42.719 23.66 62.273-4.5352-0.023437-9.0273 1.1602-13.055 3.6641-6.668 4.1641-11.41 11.215-13.023 19.363zm121.94-11.977c-1.7734-5.543-3.6133-11.285-3.7305-16.469 0-0.011718-0.003906-0.015625-0.003906-0.023437 0-0.003907 0.003906-0.011719 0.003906-0.015625-0.37891-9.9219 1.6875-17.152 5.9766-20.91 2.8711-2.5273 6.7266-3.4102 11.336-2.6602 0.074219 0.015625 0.12891 0.066407 0.20312 0.078125 3.8711 0.70703 7.3633 1.0586 10.473 1.0586 7.4297 0 12.672-2.0039 15.652-5.9922 5.6094-7.5039 0.63281-18.324-0.42578-20.418v-0.003906c0-0.003907 0-0.003907-0.003906-0.011719-3.5938-7.0273-0.015626-14.242 5.5156-17.152 5.4648-2.8828 13.52-1.9141 19.684 9.4688 0.023438 0.042969 0.0625 0.066406 0.089844 0.10547 0.023438 0.039062 0.023438 0.085937 0.050781 0.125 5.6406 8.4844 11.156 10.605 15.262 10.605 0.65625 0 1.2695-0.054687 1.8555-0.14453 8.418-1.3281 13.977-10.891 16.379-19.398 0.011719-0.042969 0-0.09375 0.011719-0.14062 0.011718-0.050781 0.042968-0.089844 0.050781-0.14453 1.457-8.1992 5.6719-12.566 11.402-12.078 5.0078 0.45313 10.355 4.9961 10.32 11.039 0 0.13281 0.054688 0.24609 0.074219 0.375 0.015625 0.14062-0.011719 0.28125 0.027344 0.42578 0.035156 0.11328 0.085937 0.19531 0.11719 0.30859 0.011719 0.023438 0.015625 0.050781 0.027344 0.074219 1.8984 6.5195 5.4922 10.801 10.754 12.652 1.9258 0.67578 3.9766 0.98047 6.0742 0.98047 7.332 0 15.242-3.6641 20.676-7.5156 9.4648-5.1758 17.863-1.8203 21.273 4.1719 2.8711 5.0234 2.5469 13.07-7.8125 19.207-0.20312 0.11719-0.33594 0.29688-0.5 0.45313-4.9492 2.3359-17.371 9.1445-19.309 19.512-0.98047 5.2461 0.91406 10.344 5.6055 15.125 0.011718 0.011719 0.011718 0.023438 0.023437 0.035156 6.3047 6.6406 7.75 13.352 4.1719 19.398-5.5625 9.3984-21.41 14.746-33.863 11.484-0.078125-0.023437-0.15234 0-0.23047-0.011719-6.793-1.4219-15.031 0.73828-24.047 6.4102-0.011719 0.003907-0.023437 0.023438-0.035156 0.035157-5.0234 3.0781-9.5039 7.8359-13.832 12.441-9.7148 10.336-18.117 19.254-31.523 11.691-15.922-14.27-23.605-12.398-33.312-10.023-6.5625 1.6055-14.609 3.5273-28.254 0.48828 11.672-9.8867 7.5312-22.957 3.793-34.637zm26.184 26.895c0.57031 0.56641 1.3281 0.85156 2.0781 0.85156 0.76172 0 1.5352-0.29688 2.1094-0.88672 35.242-35.777 73.109-61.219 112.56-75.629 1.5352-0.55859 2.3242-2.2617 1.7656-3.7969-0.55859-1.5352-2.25-2.3203-3.8008-1.7695-40.281 14.711-78.887 40.629-114.75 77.035-1.1406 1.1719-1.1328 3.0469 0.039062 4.1953zm76.531 138.1c-3.7461-5.1758-5.0898-12.258-1.5195-19.273 0-0.003906 0-0.003906 0.003907-0.011718 1.7344-3.4375 3.8906-10.293 0.98047-14.195-2.7109-3.6328-9.6719-4.5586-20.094-2.6953-0.10547 0.027343-0.19141 0.09375-0.30078 0.11719-1.4453 0.24219-2.8438 0.36328-4.207 0.36328-4.7422 0-8.9141-1.4883-12.23-4.3945-2.1445-1.8867-3.875-4.3281-5.168-7.2734-0.125 0.015625-0.23438 0.074219-0.36328 0.074219-0.035156 0-0.074219 0-0.11719-0.003907-14.527-0.56641-31.613 1.7734-50.887 6.9648-32.609 8.7812-85.5 30.426-76.277 77.035 54.402 20.398 126.76 4.7461 170.18-36.707zm14.664 7.8281c-2.8945 0-5.6797-0.72656-8.1406-2.0273-0.82812-0.4375-1.6016-0.98047-2.3633-1.5391-31.98 30.598-77.621 47.578-121.82 47.578-16.297 0-32.336-2.4531-47.473-7.2305 6.0859 72.051 53.711 134.7 106.82 140.09h0.003906c9.5469 0.96484 21.223 6.9883 28.773 16.219 1.8125-11.781 9.3281-22.637 17.73-28.684 40.516-29.211 52.125-101.11 26.887-164.44-0.13672 0.003906-0.28125 0.03125-0.42188 0.03125zm128.09-17.016c-2.9102 4.9883-10.047 8.7266-20.539 2.832-0.22266-0.12891-0.46484-0.16797-0.69922-0.23047-7.0117-4.8047-17.695-9.0781-26.125-6.1211-5.2539 1.8594-8.8555 6.1367-10.746 12.652-0.011719 0.027344-0.015625 0.054688-0.027344 0.085938-0.035156 0.11328-0.085938 0.19531-0.11328 0.30078-0.039063 0.14062-0.011719 0.27344-0.027344 0.41406-0.015625 0.12891-0.078125 0.24609-0.074219 0.37891 0.027344 6.043-5.3203 10.586-10.32 11.039-5.8398 0.54297-9.9453-3.875-11.406-12.078-0.011719-0.050782-0.039063-0.085938-0.050782-0.13281-0.011718-0.050781 0.003907-0.10156-0.011718-0.14453-2.3984-8.5078-7.957-18.07-16.379-19.398-4.2109-0.68359-10.566 0.62109-17.102 10.461-0.023437 0.039062-0.027344 0.078125-0.050781 0.11719-0.027344 0.039063-0.066406 0.066407-0.089844 0.10547-6.1719 11.387-14.219 12.332-19.684 9.4648-5.5391-2.918-9.1094-10.129-5.5234-17.16v-0.003907s0.003906 0 0.003906-0.003906c1.0586-2.0938 6.0469-12.906 0.44141-20.418-4.2227-5.6602-13.004-7.332-26.129-4.9336-0.074219 0.011719-0.12891 0.0625-0.20312 0.078126-4.6523 0.75781-8.4609-0.14063-11.336-2.6602-4.2891-3.7617-6.3555-10.992-5.9688-20.91 0-0.011719-0.003906-0.015625-0.003906-0.023437 0-0.003907 0.003906-0.011719 0.003906-0.015626 0.125-5.0664 1.7812-10.754 3.3945-16.258 2.9414-10.047 6.1484-21.086 0.46484-30.273 0.078124 0 0.16406 0.015626 0.23437 0.015626 10.758 0 18.859-8.6172 26.234-16.469 4.2734-4.543 8.3086-8.8359 12.668-11.496 0.003906 0 0.003906-0.003906 0.011719-0.003906 0.011719-0.003907 0.023437-0.003907 0.035156-0.011719 8.3945-5.2852 15.691-7.1133 21.09-5.2852 3.625 1.2266 6.3008 4.0938 7.9805 8.4961 0.015625 0.074219 0.003906 0.14453 0.035156 0.21094 4.4844 12.539 10.316 19.32 17.332 20.16 0.5 0.054688 0.99219 0.085938 1.4688 0.085938 8.5508 0 14.785-8.8125 16-10.668v-0.003907c0-0.003906 0.003907-0.003906 0.011719-0.011718 4.2773-6.625 12.32-7.1406 17.613-3.7969 5.2305 3.2969 8.4102 10.754 1.6406 21.777-0.023437 0.039063-0.023437 0.085938-0.042968 0.11719-0.023438 0.042969-0.066407 0.066406-0.089844 0.11328-5.2461 10.59-3.1641 16.742-0.5 20.047 3.4219 4.2266 9.1562 5.7734 15.086 5.7734 3.3672 0 6.7969-0.5 9.9023-1.2891 0.050781-0.011719 0.085937-0.042969 0.12891-0.0625 0.050781-0.015625 0.10156-0.003906 0.15234-0.023437 7.8359-2.8398 13.727-1.4375 16.16 3.8359 2.1055 4.5625 0.84375 11.465-4.3945 14.461-0.125 0.074219-0.20312 0.18359-0.30859 0.27344-0.10547 0.085938-0.23047 0.125-0.32422 0.21875-0.074219 0.074219-0.11719 0.15625-0.19141 0.23047-0.027343 0.035156-0.054687 0.0625-0.085937 0.10156-4.6914 4.8945-6.5898 10.148-5.5703 15.617 1.6875 9.0312 11.238 16.32 19.035 19.898 9.1602 5.6055 10.473 14.559 6.9883 20.523zm-38.969-23.168c-32.766-31.277-74.414-55.945-123.79-73.316-1.5508-0.54688-3.2422 0.26953-3.7812 1.8086-0.54297 1.5469 0.26953 3.2383 1.8086 3.7812 48.578 17.09 89.512 41.324 121.66 72.016 0.57812 0.54688 1.3164 0.81641 2.0508 0.81641 0.78516 0 1.5625-0.30859 2.1406-0.91797 1.1406-1.1797 1.0938-3.0586-0.085937-4.1875z" />
        <use x="70" y="644" xlink:href="#t" />
        <use x="90.550781" y="644" xlink:href="#c" />
        <use x="104.359375" y="644" xlink:href="#a" />
        <use x="123.347656" y="644" xlink:href="#e" />
        <use x="142.242188" y="644" xlink:href="#b" />
        <use x="155.628906" y="644" xlink:href="#a" />
        <use x="174.617188" y="644" xlink:href="#j" />
        <use x="204.410156" y="644" xlink:href="#i" />
        <use x="224.453125" y="644" xlink:href="#h" />
        <use x="252.453125" y="644" xlink:href="#g" />
        <use x="274.121094" y="644" xlink:href="#s" />
        <use x="283.71875" y="644" xlink:href="#a" />
        <use x="302.710938" y="644" xlink:href="#f" />
        <use x="322.640625" y="644" xlink:href="#e" />
        <use x="70" y="672" xlink:href="#r" />
        <use x="82.183594" y="672" xlink:href="#c" />
        <use x="95.992188" y="672" xlink:href="#d" />
        <use x="115.226562" y="672" xlink:href="#q" />
        <use x="154.152344" y="672" xlink:href="#b" />
        <use x="167.535156" y="672" xlink:href="#p" />
        <use x="187.46875" y="672" xlink:href="#a" />
        <use x="216.207031" y="672" xlink:href="#o" />
        <use x="239.640625" y="672" xlink:href="#d" />
        <use x="258.878906" y="672" xlink:href="#n" />
        <use x="278.8125" y="672" xlink:href="#f" />
        <use x="308.492188" y="672" xlink:href="#m" />
        <use x="329.015625" y="672" xlink:href="#c" />
        <use x="342.820312" y="672" xlink:href="#d" />
        <use x="362.058594" y="672" xlink:href="#l" />
        <use x="371.65625" y="672" xlink:href="#a" />
        <use x="390.648438" y="672" xlink:href="#k" />
        <use x="407.242188" y="672" xlink:href="#b" />
    </g>
</svg>